<?plantuml 1.2026.1beta5?><svg xmlns="http://www.w3.org/2000/svg" xmlns:xlink="http://www.w3.org/1999/xlink" contentStyleType="text/css" data-diagram-type="SEQUENCE" height="885px" preserveAspectRatio="none" style="width:1230px;height:885px;background:#FFFFFF;" version="1.1" viewBox="0 0 1230 885" width="1230px" zoomAndPan="magnify"><title>&#12471;&#12540;&#12465;&#12531;&#12473;&#22259;: &#26085;&#35352;&#25552;&#20986;&#12392;&#31649;&#29702;&#32773;&#12501;&#12451;&#12540;&#12489;&#12496;&#12483;&#12463;</title><defs/><g><text fill="#000000" font-family="sans-serif" font-size="14" font-weight="bold" lengthAdjust="spacing" textLength="304.4714" x="461.3139" y="27.9951">&#12471;&#12540;&#12465;&#12531;&#12473;&#22259;: &#26085;&#35352;&#25552;&#20986;&#12392;&#31649;&#29702;&#32773;&#12501;&#12451;&#12540;&#12489;&#12496;&#12483;&#12463;</text><g class="participant-lifeline" data-entity-uid="part1" data-qualified-name="User" id="part1-lifeline"><g><title>......</title><rect fill="#000000" fill-opacity="0.00000" height="670.4531" width="8" x="45.9998" y="120.8906"/><line style="stroke:#181818;stroke-width:0.5;stroke-dasharray:5,5;" x1="49" x2="49" y1="120.8906" y2="791.3438"/></g></g><g class="participant-lifeline" data-entity-uid="part2" data-qualified-name="Admin" id="part2-lifeline"><g><title>...</title><rect fill="#000000" fill-opacity="0.00000" height="670.4531" width="8" x="124.9995" y="120.8906"/><line style="stroke:#181818;stroke-width:0.5;stroke-dasharray:5,5;" x1="127.9996" x2="127.9996" y1="120.8906" y2="791.3438"/></g></g><g class="participant-lifeline" data-entity-uid="part3" data-qualified-name="Browser" id="part3-lifeline"><g><title>....</title><rect fill="#000000" fill-opacity="0.00000" height="670.4531" width="8" x="296.3796" y="120.8906"/><line style="stroke:#181818;stroke-width:0.5;stroke-dasharray:5,5;" x1="299.3797" x2="299.3797" y1="120.8906" y2="791.3438"/></g></g><g class="participant-lifeline" data-entity-uid="part4" data-qualified-name="DiaryAPI" id="part4-lifeline"><g><title>PHP.diary_api.php</title><rect fill="#000000" fill-opacity="0.00000" height="670.4531" width="8" x="519.8293" y="120.8906"/><line style="stroke:#181818;stroke-width:0.5;stroke-dasharray:5,5;" x1="523.3405" x2="523.3405" y1="120.8906" y2="791.3438"/></g></g><g class="participant-lifeline" data-entity-uid="part5" data-qualified-name="AdminPage" id="part5-lifeline"><g><title>PHP.admin.php . diary..</title><rect fill="#000000" fill-opacity="0.00000" height="670.4531" width="8" x="691.3707" y="120.8906"/><line style="stroke:#181818;stroke-width:0.5;stroke-dasharray:5,5;" x1="695.3181" x2="695.3181" y1="120.8906" y2="791.3438"/></g></g><g class="participant-lifeline" data-entity-uid="part6" data-qualified-name="DB" id="part6-lifeline"><g><title>sportsdata</title><rect fill="#000000" fill-opacity="0.00000" height="670.4531" width="8" x="1061.4132" y="120.8906"/><line style="stroke:#181818;stroke-width:0.5;stroke-dasharray:5,5;" x1="1065.2638" x2="1065.2638" y1="120.8906" y2="791.3438"/></g></g><g class="participant participant-head" data-entity-uid="part1" data-qualified-name="User" id="part1-head"><text fill="#000000" font-family="sans-serif" font-size="14" lengthAdjust="spacing" textLength="83.9996" x="5" y="117.5889">&#19968;&#33324;&#12518;&#12540;&#12470;&#12540;</text><ellipse cx="49.9998" cy="53.0938" fill="#E2E2F0" rx="8" ry="8" style="stroke:#181818;stroke-width:0.5;"/><path d="M49.9998,61.0938 L49.9998,88.0938 M36.9998,69.0938 L62.9998,69.0938 M49.9998,88.0938 L36.9998,103.0938 M49.9998,88.0938 L62.9998,103.0938" fill="none" style="stroke:#181818;stroke-width:0.5;"/></g><g class="participant participant-tail" data-entity-uid="part1" data-qualified-name="User" id="part1-tail"><text fill="#000000" font-family="sans-serif" font-size="14" lengthAdjust="spacing" textLength="83.9996" x="5" y="803.3389">&#19968;&#33324;&#12518;&#12540;&#12470;&#12540;</text><ellipse cx="49.9998" cy="815.1406" fill="#E2E2F0" rx="8" ry="8" style="stroke:#181818;stroke-width:0.5;"/><path d="M49.9998,823.1406 L49.9998,850.1406 M36.9998,831.1406 L62.9998,831.1406 M49.9998,850.1406 L36.9998,865.1406 M49.9998,850.1406 L62.9998,865.1406" fill="none" style="stroke:#181818;stroke-width:0.5;"/></g><g class="participant participant-head" data-entity-uid="part2" data-qualified-name="Admin" id="part2-head"><text fill="#000000" font-family="sans-serif" font-size="14" lengthAdjust="spacing" textLength="41.9998" x="104.9996" y="117.5889">&#31649;&#29702;&#32773;</text><ellipse cx="128.9995" cy="53.0938" fill="#E2E2F0" rx="8" ry="8" style="stroke:#181818;stroke-width:0.5;"/><path d="M128.9995,61.0938 L128.9995,88.0938 M115.9995,69.0938 L141.9995,69.0938 M128.9995,88.0938 L115.9995,103.0938 M128.9995,88.0938 L141.9995,103.0938" fill="none" style="stroke:#181818;stroke-width:0.5;"/></g><g class="participant participant-tail" data-entity-uid="part2" data-qualified-name="Admin" id="part2-tail"><text fill="#000000" font-family="sans-serif" font-size="14" lengthAdjust="spacing" textLength="41.9998" x="104.9996" y="803.3389">&#31649;&#29702;&#32773;</text><ellipse cx="128.9995" cy="815.1406" fill="#E2E2F0" rx="8" ry="8" style="stroke:#181818;stroke-width:0.5;"/><path d="M128.9995,823.1406 L128.9995,850.1406 M115.9995,831.1406 L141.9995,831.1406 M128.9995,850.1406 L115.9995,865.1406 M128.9995,850.1406 L141.9995,865.1406" fill="none" style="stroke:#181818;stroke-width:0.5;"/></g><g class="participant participant-head" data-entity-uid="part3" data-qualified-name="Browser" id="part3-head"><text fill="#000000" font-family="sans-serif" font-size="14" lengthAdjust="spacing" textLength="55.9998" x="269.3797" y="117.5889">&#12502;&#12521;&#12454;&#12470;</text><path d="M279.8796,76.5938 L279.8796,100.5938 M279.8796,88.5938 L296.8796,88.5938" fill="none" style="stroke:#181818;stroke-width:0.5;"/><ellipse cx="308.8796" cy="88.5938" fill="#E2E2F0" rx="12" ry="12" style="stroke:#181818;stroke-width:0.5;"/></g><g class="participant participant-tail" data-entity-uid="part3" data-qualified-name="Browser" id="part3-tail"><text fill="#000000" font-family="sans-serif" font-size="14" lengthAdjust="spacing" textLength="55.9998" x="269.3797" y="803.3389">&#12502;&#12521;&#12454;&#12470;</text><path d="M279.8796,810.6406 L279.8796,834.6406 M279.8796,822.6406 L296.8796,822.6406" fill="none" style="stroke:#181818;stroke-width:0.5;"/><ellipse cx="308.8796" cy="822.6406" fill="#E2E2F0" rx="12" ry="12" style="stroke:#181818;stroke-width:0.5;"/></g><g class="participant participant-head" data-entity-uid="part4" data-qualified-name="DiaryAPI" id="part4-head"><text fill="#000000" font-family="sans-serif" font-size="14" lengthAdjust="spacing" textLength="126.9775" x="457.3405" y="117.5889">PHP/diary_api.php</text><ellipse cx="523.8293" cy="88.5938" fill="#E2E2F0" rx="12" ry="12" style="stroke:#181818;stroke-width:0.5;"/><polygon fill="#181818" points="519.8293,76.5938,525.8293,71.5938,523.8293,76.5938,525.8293,81.5938,519.8293,76.5938" style="stroke:#181818;stroke-width:1;"/></g><g class="participant participant-tail" data-entity-uid="part4" data-qualified-name="DiaryAPI" id="part4-tail"><text fill="#000000" font-family="sans-serif" font-size="14" lengthAdjust="spacing" textLength="126.9775" x="457.3405" y="803.3389">PHP/diary_api.php</text><ellipse cx="523.8293" cy="822.6406" fill="#E2E2F0" rx="12" ry="12" style="stroke:#181818;stroke-width:0.5;"/><polygon fill="#181818" points="519.8293,810.6406,525.8293,805.6406,523.8293,810.6406,525.8293,815.6406,519.8293,810.6406" style="stroke:#181818;stroke-width:1;"/></g><g class="participant participant-head" data-entity-uid="part5" data-qualified-name="AdminPage" id="part5-head"><text fill="#000000" font-family="sans-serif" font-size="14" lengthAdjust="spacing" textLength="184.1053" x="600.3181" y="117.5889">PHP/admin.php / diary&#30011;&#38754;</text><ellipse cx="695.3707" cy="88.5938" fill="#E2E2F0" rx="12" ry="12" style="stroke:#181818;stroke-width:0.5;"/><polygon fill="#181818" points="691.3707,76.5938,697.3707,71.5938,695.3707,76.5938,697.3707,81.5938,691.3707,76.5938" style="stroke:#181818;stroke-width:1;"/></g><g class="participant participant-tail" data-entity-uid="part5" data-qualified-name="AdminPage" id="part5-tail"><text fill="#000000" font-family="sans-serif" font-size="14" lengthAdjust="spacing" textLength="184.1053" x="600.3181" y="803.3389">PHP/admin.php / diary&#30011;&#38754;</text><ellipse cx="695.3707" cy="822.6406" fill="#E2E2F0" rx="12" ry="12" style="stroke:#181818;stroke-width:0.5;"/><polygon fill="#181818" points="691.3707,810.6406,697.3707,805.6406,695.3707,810.6406,697.3707,815.6406,691.3707,810.6406" style="stroke:#181818;stroke-width:1;"/></g><g class="participant participant-head" data-entity-uid="part6" data-qualified-name="DB" id="part6-head"><text fill="#000000" font-family="sans-serif" font-size="14" lengthAdjust="spacing" textLength="92.2988" x="1016.2638" y="101.292">sportsdata</text><text fill="#000000" font-family="sans-serif" font-size="14" lengthAdjust="spacing" textLength="60.6621" x="1032.0822" y="117.5889">diary_tbl</text><path d="M1047.4132,52.2969 C1047.4132,42.2969 1065.4132,42.2969 1065.4132,42.2969 C1065.4132,42.2969 1083.4132,42.2969 1083.4132,52.2969 L1083.4132,78.2969 C1083.4132,88.2969 1065.4132,88.2969 1065.4132,88.2969 C1065.4132,88.2969 1047.4132,88.2969 1047.4132,78.2969 L1047.4132,52.2969" fill="#E2E2F0" style="stroke:#181818;stroke-width:0.5;"/><path d="M1047.4132,52.2969 C1047.4132,62.2969 1065.4132,62.2969 1065.4132,62.2969 C1065.4132,62.2969 1083.4132,62.2969 1083.4132,52.2969" fill="none" style="stroke:#181818;stroke-width:0.5;"/></g><g class="participant participant-tail" data-entity-uid="part6" data-qualified-name="DB" id="part6-tail"><text fill="#000000" font-family="sans-serif" font-size="14" lengthAdjust="spacing" textLength="92.2988" x="1016.2638" y="803.3389">sportsdata</text><text fill="#000000" font-family="sans-serif" font-size="14" lengthAdjust="spacing" textLength="60.6621" x="1032.0822" y="819.6357">diary_tbl</text><path d="M1047.4132,832.9375 C1047.4132,822.9375 1065.4132,822.9375 1065.4132,822.9375 C1065.4132,822.9375 1083.4132,822.9375 1083.4132,832.9375 L1083.4132,858.9375 C1083.4132,868.9375 1065.4132,868.9375 1065.4132,868.9375 C1065.4132,868.9375 1047.4132,868.9375 1047.4132,858.9375 L1047.4132,832.9375" fill="#E2E2F0" style="stroke:#181818;stroke-width:0.5;"/><path d="M1047.4132,832.9375 C1047.4132,842.9375 1065.4132,842.9375 1065.4132,842.9375 C1065.4132,842.9375 1083.4132,842.9375 1083.4132,832.9375" fill="none" style="stroke:#181818;stroke-width:0.5;"/></g><g class="message" data-entity-1="part1" data-entity-2="part3" id="msg1"><polygon fill="#181818" points="288.3796,148.0234,298.3796,152.0234,288.3796,156.0234,292.3796,152.0234" style="stroke:#181818;stroke-width:1;"/><line style="stroke:#181818;stroke-width:1;" x1="49.9998" x2="294.3796" y1="152.0234" y2="152.0234"/><text fill="#000000" font-family="sans-serif" font-size="13" lengthAdjust="spacing" textLength="140.1437" x="56.9998" y="146.9575">&#26085;&#35352;&#12434;&#25552;&#20986;(&#25552;&#20986;&#12508;&#12479;&#12531;)</text></g><g class="message" data-entity-1="part3" data-entity-2="part4" id="msg2"><polygon fill="#181818" points="511.8293,177.1563,521.8293,181.1563,511.8293,185.1563,515.8293,181.1563" style="stroke:#181818;stroke-width:1;"/><line style="stroke:#181818;stroke-width:1;" x1="300.3796" x2="517.8293" y1="181.1563" y2="181.1563"/><text fill="#000000" font-family="sans-serif" font-size="13" lengthAdjust="spacing" textLength="199.4497" x="307.3796" y="176.0903">POST(action=submit, diary_id)</text></g><g class="message" data-entity-1="part4" data-entity-2="part4" id="msg3"><line style="stroke:#181818;stroke-width:1;" x1="523.8293" x2="565.8293" y1="225.4219" y2="225.4219"/><line style="stroke:#181818;stroke-width:1;" x1="565.8293" x2="565.8293" y1="225.4219" y2="238.4219"/><line style="stroke:#181818;stroke-width:1;" x1="524.8293" x2="565.8293" y1="238.4219" y2="238.4219"/><polygon fill="#181818" points="534.8293,234.4219,524.8293,238.4219,534.8293,242.4219,530.8293,238.4219" style="stroke:#181818;stroke-width:1;"/><text fill="#000000" font-family="sans-serif" font-size="13" lengthAdjust="spacing" textLength="91.0001" x="530.8293" y="205.2231">&#12475;&#12483;&#12471;&#12519;&#12531;&#30906;&#35469;</text><text fill="#000000" font-family="sans-serif" font-size="13" lengthAdjust="spacing" textLength="117.3999" x="530.8293" y="220.356">(group_id,user_id)</text></g><g class="message" data-entity-1="part4" data-entity-2="part6" id="msg4"><polygon fill="#181818" points="1053.4132,293.8203,1063.4132,297.8203,1053.4132,301.8203,1057.4132,297.8203" style="stroke:#181818;stroke-width:1;"/><line style="stroke:#181818;stroke-width:1;" x1="523.8293" x2="1059.4132" y1="297.8203" y2="297.8203"/><text fill="#000000" font-family="sans-serif" font-size="13" lengthAdjust="spacing" textLength="112.874" x="530.8293" y="262.4888">UPDATE diary_tbl</text><text fill="#000000" font-family="sans-serif" font-size="13" lengthAdjust="spacing" textLength="328.1294" x="530.8293" y="277.6216">SET submitted_to_admin=1, submitted_at=NOW()</text><text fill="#000000" font-family="sans-serif" font-size="13" lengthAdjust="spacing" textLength="294.3726" x="530.8293" y="292.7544">WHERE id=? AND group_id=? AND user_id=?</text></g><g class="message" data-entity-1="part6" data-entity-2="part4" id="msg5"><polygon fill="#181818" points="534.8293,322.9531,524.8293,326.9531,534.8293,330.9531,530.8293,326.9531" style="stroke:#181818;stroke-width:1;"/><line style="stroke:#181818;stroke-width:1;stroke-dasharray:2,2;" x1="528.8293" x2="1064.4132" y1="326.9531" y2="326.9531"/><text fill="#000000" font-family="sans-serif" font-size="13" lengthAdjust="spacing" textLength="18.7573" x="540.8293" y="321.8872">OK</text></g><g class="message" data-entity-1="part4" data-entity-2="part3" id="msg6"><polygon fill="#181818" points="311.3796,352.0859,301.3796,356.0859,311.3796,360.0859,307.3796,356.0859" style="stroke:#181818;stroke-width:1;"/><line style="stroke:#181818;stroke-width:1;stroke-dasharray:2,2;" x1="305.3796" x2="522.8293" y1="356.0859" y2="356.0859"/><text fill="#000000" font-family="sans-serif" font-size="13" lengthAdjust="spacing" textLength="91.0001" x="317.3796" y="351.02">&#25104;&#21151;&#12524;&#12473;&#12509;&#12531;&#12473;</text></g><g class="message" data-entity-1="part2" data-entity-2="part3" id="msg7"><polygon fill="#181818" points="288.3796,381.2188,298.3796,385.2188,288.3796,389.2188,292.3796,385.2188" style="stroke:#181818;stroke-width:1;"/><line style="stroke:#181818;stroke-width:1;" x1="128.9995" x2="294.3796" y1="385.2188" y2="385.2188"/><text fill="#000000" font-family="sans-serif" font-size="13" lengthAdjust="spacing" textLength="91.0001" x="135.9995" y="380.1528">&#25552;&#20986;&#19968;&#35239;&#12434;&#38322;&#35239;</text></g><g class="message" data-entity-1="part3" data-entity-2="part5" id="msg8"><polygon fill="#181818" points="683.3707,410.3516,693.3707,414.3516,683.3707,418.3516,687.3707,414.3516" style="stroke:#181818;stroke-width:1;"/><line style="stroke:#181818;stroke-width:1;" x1="300.3796" x2="689.3707" y1="414.3516" y2="414.3516"/><text fill="#000000" font-family="sans-serif" font-size="13" lengthAdjust="spacing" textLength="26.2285" x="307.3796" y="409.2856">GET</text></g><g class="message" data-entity-1="part5" data-entity-2="part6" id="msg9"><polygon fill="#181818" points="1053.4132,454.6172,1063.4132,458.6172,1053.4132,462.6172,1057.4132,458.6172" style="stroke:#181818;stroke-width:1;"/><line style="stroke:#181818;stroke-width:1;" x1="695.3707" x2="1059.4132" y1="458.6172" y2="458.6172"/><text fill="#000000" font-family="sans-serif" font-size="13" lengthAdjust="spacing" textLength="168.0225" x="702.3707" y="438.4185">SELECT ... FROM diary_tbl</text><text fill="#000000" font-family="sans-serif" font-size="13" lengthAdjust="spacing" textLength="315.2437" x="702.3707" y="453.5513">WHERE group_id=? AND submitted_to_admin=1</text></g><g class="message" data-entity-1="part6" data-entity-2="part5" id="msg10"><polygon fill="#181818" points="706.3707,483.75,696.3707,487.75,706.3707,491.75,702.3707,487.75" style="stroke:#181818;stroke-width:1;"/><line style="stroke:#181818;stroke-width:1;stroke-dasharray:2,2;" x1="700.3707" x2="1064.4132" y1="487.75" y2="487.75"/><text fill="#000000" font-family="sans-serif" font-size="13" lengthAdjust="spacing" textLength="26" x="712.3707" y="482.6841">&#19968;&#35239;</text></g><g class="message" data-entity-1="part5" data-entity-2="part3" id="msg11"><polygon fill="#181818" points="311.3796,512.8828,301.3796,516.8828,311.3796,520.8828,307.3796,516.8828" style="stroke:#181818;stroke-width:1;"/><line style="stroke:#181818;stroke-width:1;stroke-dasharray:2,2;" x1="305.3796" x2="694.3707" y1="516.8828" y2="516.8828"/><text fill="#000000" font-family="sans-serif" font-size="13" lengthAdjust="spacing" textLength="104.0001" x="317.3796" y="511.8169">&#25552;&#20986;&#26085;&#35352;&#19968;&#35239;&#34920;&#31034;</text></g><g class="message" data-entity-1="part2" data-entity-2="part3" id="msg12"><polygon fill="#181818" points="288.3796,542.0156,298.3796,546.0156,288.3796,550.0156,292.3796,546.0156" style="stroke:#181818;stroke-width:1;"/><line style="stroke:#181818;stroke-width:1;" x1="128.9995" x2="294.3796" y1="546.0156" y2="546.0156"/><text fill="#000000" font-family="sans-serif" font-size="13" lengthAdjust="spacing" textLength="147.3801" x="135.9995" y="540.9497">&#12501;&#12451;&#12540;&#12489;&#12496;&#12483;&#12463;&#20837;&#21147;/&#36865;&#20449;</text></g><g class="message" data-entity-1="part3" data-entity-2="part5" id="msg13"><polygon fill="#181818" points="683.3707,571.1484,693.3707,575.1484,683.3707,579.1484,687.3707,575.1484" style="stroke:#181818;stroke-width:1;"/><line style="stroke:#181818;stroke-width:1;" x1="300.3796" x2="689.3707" y1="575.1484" y2="575.1484"/><text fill="#000000" font-family="sans-serif" font-size="13" lengthAdjust="spacing" textLength="210.8564" x="307.3796" y="570.0825">POST(diary_id, admin_feedback)</text></g><g class="message" data-entity-1="part5" data-entity-2="part6" id="msg14"><polygon fill="#181818" points="1053.4132,645.6797,1063.4132,649.6797,1053.4132,653.6797,1057.4132,649.6797" style="stroke:#181818;stroke-width:1;"/><line style="stroke:#181818;stroke-width:1;" x1="695.3707" x2="1059.4132" y1="649.6797" y2="649.6797"/><text fill="#000000" font-family="sans-serif" font-size="13" lengthAdjust="spacing" textLength="112.874" x="702.3707" y="599.2153">UPDATE diary_tbl</text><text fill="#000000" font-family="sans-serif" font-size="13" lengthAdjust="spacing" textLength="346.0425" x="702.3707" y="614.3481">SET admin_feedback=?, admin_feedback_at=NOW(),</text><text fill="#000000" font-family="sans-serif" font-size="13" lengthAdjust="spacing" textLength="200.4082" x="702.3707" y="629.481">admin_feedback_by_user_id=?</text><text fill="#000000" font-family="sans-serif" font-size="13" lengthAdjust="spacing" textLength="192.9688" x="702.3707" y="644.6138">WHERE id=? AND group_id=?</text></g><g class="message" data-entity-1="part6" data-entity-2="part5" id="msg15"><polygon fill="#181818" points="706.3707,674.8125,696.3707,678.8125,706.3707,682.8125,702.3707,678.8125" style="stroke:#181818;stroke-width:1;"/><line style="stroke:#181818;stroke-width:1;stroke-dasharray:2,2;" x1="700.3707" x2="1064.4132" y1="678.8125" y2="678.8125"/><text fill="#000000" font-family="sans-serif" font-size="13" lengthAdjust="spacing" textLength="18.7573" x="712.3707" y="673.7466">OK</text></g><g class="message" data-entity-1="part5" data-entity-2="part3" id="msg16"><polygon fill="#181818" points="311.3796,703.9453,301.3796,707.9453,311.3796,711.9453,307.3796,707.9453" style="stroke:#181818;stroke-width:1;"/><line style="stroke:#181818;stroke-width:1;stroke-dasharray:2,2;" x1="305.3796" x2="694.3707" y1="707.9453" y2="707.9453"/><text fill="#000000" font-family="sans-serif" font-size="13" lengthAdjust="spacing" textLength="52.0001" x="317.3796" y="702.8794">&#23436;&#20102;&#34920;&#31034;</text></g><path d="M906,720.9453 L906,775.9453 L1223,775.9453 L1223,730.9453 L1213,720.9453 L906,720.9453" fill="#FEFFDD" style="stroke:#181818;stroke-width:0.5;"/><path d="M1213,720.9453 L1213,730.9453 L1223,730.9453 L1213,720.9453" fill="#FEFFDD" style="stroke:#181818;stroke-width:0.5;"/><text fill="#000000" font-family="sans-serif" font-size="13" lengthAdjust="spacing" textLength="296.0991" x="912" y="738.0122">submitted_to_admin/admin_feedback&#31995;&#12398;&#21015;&#12399;</text><text fill="#000000" font-family="sans-serif" font-size="13" lengthAdjust="spacing" textLength="260.0003" x="912" y="753.145">&#29872;&#22659;&#12395;&#12424;&#12387;&#12390;&#12399;&#23384;&#22312;&#12375;&#12394;&#12356;&#21487;&#33021;&#24615;&#12364;&#12354;&#12427;&#12383;&#12417;</text><text fill="#000000" font-family="sans-serif" font-size="13" lengthAdjust="spacing" textLength="247.0003" x="912" y="768.2778">&#23455;&#35013;&#20596;&#12391;&#21015;&#23384;&#22312;&#12481;&#12455;&#12483;&#12463;&#12398;&#20114;&#25563;&#20966;&#29702;&#12364;&#12354;&#12427;</text><?plantuml-src VLJVJzDG67s_VyNDdhPaRF6LP9BDLJ4gMs24boLDIoisGhjidOQttLw1YHWMea02X02oJSIXOlmnDFmntqhBV-5TkvODYYzD-_LytpdVkQVL5NrMnc3y1Fe7ZAz0Jy7uRMwT3kEBZKExkNcnMZENsa2QLclFgYtQbGMWxy4uwCBfQw0re1IC4uI4QLqhuicINCH22OSwlofszHXetPdxWrr3FKXIcbDK1-EF325HAwkIK9p7gQBsqfi1T1teHp3gR408JMkgNjHcSLfXk6JseGF9ZcRZKhV02mKbLdXMkC8vF5bXHlQ1GhVI1U4uTfgiTsUNE_iX90cw80eb6QTJ3hXKq8fwjyXBObvrv-lYR0WXPx-XkxvCpoOmrbodmZt3w3OOvypD2FAWhCkNFeopcObSc1cYQ6gYL1Rd53tgQk8LAO9yu60J66UEtUom6cosjT-sZzxcrV1CKIiNM6Eqp8Xk3aYnribiEfdZiBzBNftWSjXbrcM9rpNUiITn9zfN5VJ4M6Og7CchKwFSE8SLAJ62asDfx37s7dkyYH74o8O6HMSUzQaPjAvQCvTtWHwpo07TSRE7a1kGGQHZQZTJzGQp-dBz6xlfT_Rgi8Vn0ow7hfuz0oQunzoz78x5OlZ-UEP9lnFkRjTM2hB6swwVpHNLJnYWt0s92xNtcjQ7Tk2QWP-MkN1eBc_5BokaSxvtsyvEdBpyHB6Zbtygov8eJ3-F1DWHd8V1liJ8zKb-8A9vzTeRSPxtK_2Vk0HPo19octrcQwNJNlGiKpLTnjeBzYQTGZSFA3ueoJez0z8ognj0Jf2rziNSfq0-WL45SW2apghcvqrpkmc48Ow0l39NJspwzwBI0B82n03Z3P1TC0WoMxlsmO99lWDfi7czDah0QBXdn7WwRVO7s3ANwkoNvlSZMPLmL_K_?></g></svg>