<?plantuml 1.2026.1beta5?><svg xmlns="http://www.w3.org/2000/svg" xmlns:xlink="http://www.w3.org/1999/xlink" contentStyleType="text/css" data-diagram-type="SEQUENCE" height="696px" preserveAspectRatio="none" style="width:726px;height:696px;background:#FFFFFF;" version="1.1" viewBox="0 0 726 696" width="726px" zoomAndPan="magnify"><title>&#12471;&#12540;&#12465;&#12531;&#12473;&#22259;: &#12525;&#12464;&#12452;&#12531;</title><defs/><g><text fill="#000000" font-family="sans-serif" font-size="14" font-weight="bold" lengthAdjust="spacing" textLength="150.472" x="289.6224" y="27.9951">&#12471;&#12540;&#12465;&#12531;&#12473;&#22259;: &#12525;&#12464;&#12452;&#12531;</text><rect fill="none" height="222.5391" style="stroke:#000000;stroke-width:1.5;" width="507.4227" x="132.0002" y="311.6875"/><rect fill="none" height="90.2031" style="stroke:#000000;stroke-width:1.5;" width="344.4086" x="142.0002" y="393.0859"/><g class="participant-lifeline" data-entity-uid="part1" data-qualified-name="User" id="part1-lifeline"><g><title>...</title><rect fill="#000000" fill-opacity="0.00000" height="480.6016" width="8" x="24.9999" y="120.8906"/><line style="stroke:#181818;stroke-width:0.5;stroke-dasharray:5,5;" x1="28" x2="28" y1="120.8906" y2="601.4922"/></g></g><g class="participant-lifeline" data-entity-uid="part2" data-qualified-name="Browser" id="part2-lifeline"><g><title>....</title><rect fill="#000000" fill-opacity="0.00000" height="480.6016" width="8" x="179.0001" y="120.8906"/><line style="stroke:#181818;stroke-width:0.5;stroke-dasharray:5,5;" x1="182.0002" x2="182.0002" y1="120.8906" y2="601.4922"/></g></g><g class="participant-lifeline" data-entity-uid="part3" data-qualified-name="LoginPHP" id="part3-lifeline"><g><title>PHP.login.php</title><rect fill="#000000" fill-opacity="0.00000" height="480.6016" width="8" x="420.7437" y="120.8906"/><line style="stroke:#181818;stroke-width:0.5;stroke-dasharray:5,5;" x1="424.0787" x2="424.0787" y1="120.8906" y2="601.4922"/></g></g><g class="participant-lifeline" data-entity-uid="part4" data-qualified-name="DB" id="part4-lifeline"><g><title>sportdata_db</title><rect fill="#000000" fill-opacity="0.00000" height="480.6016" width="8" x="672.5674" y="120.8906"/><line style="stroke:#181818;stroke-width:0.5;stroke-dasharray:5,5;" x1="676.418" x2="676.418" y1="120.8906" y2="601.4922"/></g></g><g class="participant participant-head" data-entity-uid="part1" data-qualified-name="User" id="part1-head"><text fill="#000000" font-family="sans-serif" font-size="14" lengthAdjust="spacing" textLength="41.9998" x="5" y="117.5889">&#21033;&#29992;&#32773;</text><ellipse cx="28.9999" cy="53.0938" fill="#E2E2F0" rx="8" ry="8" style="stroke:#181818;stroke-width:0.5;"/><path d="M28.9999,61.0938 L28.9999,88.0938 M15.9999,69.0938 L41.9999,69.0938 M28.9999,88.0938 L15.9999,103.0938 M28.9999,88.0938 L41.9999,103.0938" fill="none" style="stroke:#181818;stroke-width:0.5;"/></g><g class="participant participant-tail" data-entity-uid="part1" data-qualified-name="User" id="part1-tail"><text fill="#000000" font-family="sans-serif" font-size="14" lengthAdjust="spacing" textLength="41.9998" x="5" y="613.4873">&#21033;&#29992;&#32773;</text><ellipse cx="28.9999" cy="625.2891" fill="#E2E2F0" rx="8" ry="8" style="stroke:#181818;stroke-width:0.5;"/><path d="M28.9999,633.2891 L28.9999,660.2891 M15.9999,641.2891 L41.9999,641.2891 M28.9999,660.2891 L15.9999,675.2891 M28.9999,660.2891 L41.9999,675.2891" fill="none" style="stroke:#181818;stroke-width:0.5;"/></g><g class="participant participant-head" data-entity-uid="part2" data-qualified-name="Browser" id="part2-head"><text fill="#000000" font-family="sans-serif" font-size="14" lengthAdjust="spacing" textLength="55.9998" x="152.0002" y="117.5889">&#12502;&#12521;&#12454;&#12470;</text><path d="M162.5001,76.5938 L162.5001,100.5938 M162.5001,88.5938 L179.5001,88.5938" fill="none" style="stroke:#181818;stroke-width:0.5;"/><ellipse cx="191.5001" cy="88.5938" fill="#E2E2F0" rx="12" ry="12" style="stroke:#181818;stroke-width:0.5;"/></g><g class="participant participant-tail" data-entity-uid="part2" data-qualified-name="Browser" id="part2-tail"><text fill="#000000" font-family="sans-serif" font-size="14" lengthAdjust="spacing" textLength="55.9998" x="152.0002" y="613.4873">&#12502;&#12521;&#12454;&#12470;</text><path d="M162.5001,620.7891 L162.5001,644.7891 M162.5001,632.7891 L179.5001,632.7891" fill="none" style="stroke:#181818;stroke-width:0.5;"/><ellipse cx="191.5001" cy="632.7891" fill="#E2E2F0" rx="12" ry="12" style="stroke:#181818;stroke-width:0.5;"/></g><g class="participant participant-head" data-entity-uid="part3" data-qualified-name="LoginPHP" id="part3-head"><text fill="#000000" font-family="sans-serif" font-size="14" lengthAdjust="spacing" textLength="97.3301" x="373.0787" y="117.5889">PHP/login.php</text><ellipse cx="424.7437" cy="88.5938" fill="#E2E2F0" rx="12" ry="12" style="stroke:#181818;stroke-width:0.5;"/><polygon fill="#181818" points="420.7437,76.5938,426.7437,71.5938,424.7437,76.5938,426.7437,81.5938,420.7437,76.5938" style="stroke:#181818;stroke-width:1;"/></g><g class="participant participant-tail" data-entity-uid="part3" data-qualified-name="LoginPHP" id="part3-tail"><text fill="#000000" font-family="sans-serif" font-size="14" lengthAdjust="spacing" textLength="97.3301" x="373.0787" y="613.4873">PHP/login.php</text><ellipse cx="424.7437" cy="632.7891" fill="#E2E2F0" rx="12" ry="12" style="stroke:#181818;stroke-width:0.5;"/><polygon fill="#181818" points="420.7437,620.7891,426.7437,615.7891,424.7437,620.7891,426.7437,625.7891,420.7437,620.7891" style="stroke:#181818;stroke-width:1;"/></g><g class="participant participant-head" data-entity-uid="part4" data-qualified-name="DB" id="part4-head"><text fill="#000000" font-family="sans-serif" font-size="14" lengthAdjust="spacing" textLength="92.2988" x="627.418" y="101.292">sportdata_db</text><text fill="#000000" font-family="sans-serif" font-size="14" lengthAdjust="spacing" textLength="59.3701" x="643.8824" y="117.5889">login_tbl</text><path d="M658.5674,52.2969 C658.5674,42.2969 676.5674,42.2969 676.5674,42.2969 C676.5674,42.2969 694.5674,42.2969 694.5674,52.2969 L694.5674,78.2969 C694.5674,88.2969 676.5674,88.2969 676.5674,88.2969 C676.5674,88.2969 658.5674,88.2969 658.5674,78.2969 L658.5674,52.2969" fill="#E2E2F0" style="stroke:#181818;stroke-width:0.5;"/><path d="M658.5674,52.2969 C658.5674,62.2969 676.5674,62.2969 676.5674,62.2969 C676.5674,62.2969 694.5674,62.2969 694.5674,52.2969" fill="none" style="stroke:#181818;stroke-width:0.5;"/></g><g class="participant participant-tail" data-entity-uid="part4" data-qualified-name="DB" id="part4-tail"><text fill="#000000" font-family="sans-serif" font-size="14" lengthAdjust="spacing" textLength="92.2988" x="627.418" y="613.4873">sportdata_db</text><text fill="#000000" font-family="sans-serif" font-size="14" lengthAdjust="spacing" textLength="59.3701" x="643.8824" y="629.7842">login_tbl</text><path d="M658.5674,643.0859 C658.5674,633.0859 676.5674,633.0859 676.5674,633.0859 C676.5674,633.0859 694.5674,633.0859 694.5674,643.0859 L694.5674,669.0859 C694.5674,679.0859 676.5674,679.0859 676.5674,679.0859 C676.5674,679.0859 658.5674,679.0859 658.5674,669.0859 L658.5674,643.0859" fill="#E2E2F0" style="stroke:#181818;stroke-width:0.5;"/><path d="M658.5674,643.0859 C658.5674,653.0859 676.5674,653.0859 676.5674,653.0859 C676.5674,653.0859 694.5674,653.0859 694.5674,643.0859" fill="none" style="stroke:#181818;stroke-width:0.5;"/></g><g class="message" data-entity-1="part1" data-entity-2="part2" id="msg1"><polygon fill="#181818" points="171.0001,148.0234,181.0001,152.0234,171.0001,156.0234,175.0001,152.0234" style="stroke:#181818;stroke-width:1;"/><line style="stroke:#181818;stroke-width:1;" x1="28.9999" x2="177.0001" y1="152.0234" y2="152.0234"/><text fill="#000000" font-family="sans-serif" font-size="13" lengthAdjust="spacing" textLength="130.0002" x="35.9999" y="146.9575">&#12525;&#12464;&#12452;&#12531;&#12501;&#12457;&#12540;&#12512;&#20837;&#21147;</text></g><g class="message" data-entity-1="part2" data-entity-2="part3" id="msg2"><polygon fill="#181818" points="412.7437,177.1563,422.7437,181.1563,412.7437,185.1563,416.7437,181.1563" style="stroke:#181818;stroke-width:1;"/><line style="stroke:#181818;stroke-width:1;" x1="183.0001" x2="418.7437" y1="181.1563" y2="181.1563"/><text fill="#000000" font-family="sans-serif" font-size="13" lengthAdjust="spacing" textLength="217.7437" x="190.0001" y="176.0903">POST(user_id,password,group_id)</text></g><g class="message" data-entity-1="part3" data-entity-2="part4" id="msg3"><polygon fill="#181818" points="664.5674,221.4219,674.5674,225.4219,664.5674,229.4219,668.5674,225.4219" style="stroke:#181818;stroke-width:1;"/><line style="stroke:#181818;stroke-width:1;" x1="424.7437" x2="670.5674" y1="225.4219" y2="225.4219"/><text fill="#000000" font-family="sans-serif" font-size="13" lengthAdjust="spacing" textLength="166.8228" x="431.7437" y="205.2231">SELECT ... FROM login_tbl</text><text fill="#000000" font-family="sans-serif" font-size="13" lengthAdjust="spacing" textLength="227.8237" x="431.7437" y="220.356">WHERE group_id=? AND user_id=?</text></g><g class="message" data-entity-1="part4" data-entity-2="part3" id="msg4"><polygon fill="#181818" points="435.7437,250.5547,425.7437,254.5547,435.7437,258.5547,431.7437,254.5547" style="stroke:#181818;stroke-width:1;"/><line style="stroke:#181818;stroke-width:1;stroke-dasharray:2,2;" x1="429.7437" x2="675.5674" y1="254.5547" y2="254.5547"/><text fill="#000000" font-family="sans-serif" font-size="13" lengthAdjust="spacing" textLength="218.1438" x="441.7437" y="249.4888">&#12518;&#12540;&#12470;&#12540;&#24773;&#22577;(&#12497;&#12473;&#12527;&#12540;&#12489;&#12495;&#12483;&#12471;&#12517;&#31561;)</text></g><g class="message" data-entity-1="part3" data-entity-2="part3" id="msg5"><line style="stroke:#181818;stroke-width:1;" x1="424.7437" x2="466.7437" y1="283.6875" y2="283.6875"/><line style="stroke:#181818;stroke-width:1;" x1="466.7437" x2="466.7437" y1="283.6875" y2="296.6875"/><line style="stroke:#181818;stroke-width:1;" x1="425.7437" x2="466.7437" y1="296.6875" y2="296.6875"/><polygon fill="#181818" points="435.7437,292.6875,425.7437,296.6875,435.7437,300.6875,431.7437,296.6875" style="stroke:#181818;stroke-width:1;"/><text fill="#000000" font-family="sans-serif" font-size="13" lengthAdjust="spacing" textLength="115.5083" x="431.7437" y="278.6216">password_verify()</text></g><path d="M132.0002,311.6875 L196.4431,311.6875 L196.4431,318.8203 L186.4431,328.8203 L132.0002,328.8203 L132.0002,311.6875" fill="#EEEEEE" style="stroke:#000000;stroke-width:1.5;"/><rect fill="none" height="222.5391" style="stroke:#000000;stroke-width:1.5;" width="507.4227" x="132.0002" y="311.6875"/><text fill="#000000" font-family="sans-serif" font-size="13" font-weight="bold" lengthAdjust="spacing" textLength="19.4429" x="147.0002" y="324.7544">alt</text><text fill="#000000" font-family="sans-serif" font-size="11" font-weight="bold" lengthAdjust="spacing" textLength="54.0544" x="211.4431" y="323.8979">[&#35469;&#35388;&#25104;&#21151;]</text><g class="message" data-entity-1="part3" data-entity-2="part3" id="msg6"><line style="stroke:#181818;stroke-width:1;" x1="424.7437" x2="466.7437" y1="365.0859" y2="365.0859"/><line style="stroke:#181818;stroke-width:1;" x1="466.7437" x2="466.7437" y1="365.0859" y2="378.0859"/><line style="stroke:#181818;stroke-width:1;" x1="425.7437" x2="466.7437" y1="378.0859" y2="378.0859"/><polygon fill="#181818" points="435.7437,374.0859,425.7437,378.0859,435.7437,382.0859,431.7437,378.0859" style="stroke:#181818;stroke-width:1;"/><text fill="#000000" font-family="sans-serif" font-size="13" lengthAdjust="spacing" textLength="110.5318" x="431.7437" y="344.8872">$_SESSION&#12408;&#20445;&#23384;</text><text fill="#000000" font-family="sans-serif" font-size="13" lengthAdjust="spacing" textLength="195.6792" x="431.7437" y="360.02">(user_id,group_id,is_admin,...)</text></g><path d="M142.0002,393.0859 L206.4431,393.0859 L206.4431,400.2188 L196.4431,410.2188 L142.0002,410.2188 L142.0002,393.0859" fill="#EEEEEE" style="stroke:#000000;stroke-width:1.5;"/><rect fill="none" height="90.2031" style="stroke:#000000;stroke-width:1.5;" width="344.4086" x="142.0002" y="393.0859"/><text fill="#000000" font-family="sans-serif" font-size="13" font-weight="bold" lengthAdjust="spacing" textLength="19.4429" x="157.0002" y="406.1528">alt</text><text fill="#000000" font-family="sans-serif" font-size="11" font-weight="bold" lengthAdjust="spacing" textLength="81.1035" x="221.4431" y="405.2964">[is_admin=1]</text><g class="message" data-entity-1="part3" data-entity-2="part2" id="msg7"><polygon fill="#181818" points="194.0001,427.3516,184.0001,431.3516,194.0001,435.3516,190.0001,431.3516" style="stroke:#181818;stroke-width:1;"/><line style="stroke:#181818;stroke-width:1;stroke-dasharray:2,2;" x1="188.0001" x2="423.7437" y1="431.3516" y2="431.3516"/><text fill="#000000" font-family="sans-serif" font-size="13" lengthAdjust="spacing" textLength="124.5347" x="200.0001" y="426.2856">redirect admin.php</text></g><line style="stroke:#000000;stroke-width:1;stroke-dasharray:2,2;" x1="142.0002" x2="486.4088" y1="440.3516" y2="440.3516"/><text fill="#000000" font-family="sans-serif" font-size="11" font-weight="bold" lengthAdjust="spacing" textLength="32.0545" x="147.0002" y="450.562">[&#19968;&#33324;]</text><g class="message" data-entity-1="part3" data-entity-2="part2" id="msg8"><polygon fill="#181818" points="194.0001,471.2891,184.0001,475.2891,194.0001,479.2891,190.0001,475.2891" style="stroke:#181818;stroke-width:1;"/><line style="stroke:#181818;stroke-width:1;stroke-dasharray:2,2;" x1="188.0001" x2="423.7437" y1="475.2891" y2="475.2891"/><text fill="#000000" font-family="sans-serif" font-size="13" lengthAdjust="spacing" textLength="120.6563" x="200.0001" y="470.2231">redirect home.php</text></g><line style="stroke:#000000;stroke-width:1;stroke-dasharray:2,2;" x1="132.0002" x2="639.4229" y1="491.2891" y2="491.2891"/><text fill="#000000" font-family="sans-serif" font-size="11" font-weight="bold" lengthAdjust="spacing" textLength="54.0544" x="137.0002" y="501.4995">[&#35469;&#35388;&#22833;&#25943;]</text><g class="message" data-entity-1="part3" data-entity-2="part2" id="msg9"><polygon fill="#181818" points="194.0001,522.2266,184.0001,526.2266,194.0001,530.2266,190.0001,526.2266" style="stroke:#181818;stroke-width:1;"/><line style="stroke:#181818;stroke-width:1;stroke-dasharray:2,2;" x1="188.0001" x2="423.7437" y1="526.2266" y2="526.2266"/><text fill="#000000" font-family="sans-serif" font-size="13" lengthAdjust="spacing" textLength="65.0001" x="200.0001" y="521.1606">&#12456;&#12521;&#12540;&#34920;&#31034;</text></g><path d="M272,546.2266 L272,586.2266 L577,586.2266 L577,556.2266 L567,546.2266 L272,546.2266" fill="#FEFFDD" style="stroke:#181818;stroke-width:0.5;"/><path d="M567,546.2266 L567,556.2266 L577,556.2266 L567,546.2266" fill="#FEFFDD" style="stroke:#181818;stroke-width:0.5;"/><text fill="#000000" font-family="sans-serif" font-size="13" lengthAdjust="spacing" textLength="284.4513" x="278" y="563.2935">&#12475;&#12483;&#12471;&#12519;&#12531;&#21517;&#12399; session_bootstrap.php &#12395;&#12424;&#12426;</text><text fill="#000000" font-family="sans-serif" font-size="13" lengthAdjust="spacing" textLength="190.7345" x="278" y="578.4263">URL&#12398; tab_id &#12434;&#20803;&#12395;&#20999;&#26367;&#12373;&#12428;&#12427;</text><?plantuml-src ZLBHQXD157sVhxW47n988xu6Oh4sKY4s8Mdn9R1iickxiDrPPYUMlZKp1DFKOXMhGX0hf3LHOms5MhNGZxdT99_XxEekpKF1brquSywzvvvxkSLj4r3yG7c1OeJo5CLFltkQ1PH35DzHz1H6Y5xdbC6gPpBGFKZuxS7aTN-wtKgG6cquXiwsO87HpUWTvHkK0nJ7ACuIf4uTpgWD1RfcEQMbKaXH_zjs06JSTJT139thDTqpON4XVFPSodW0QaQjweH4ZTVi126XYRcxSRzPgoWFK0o2QUIXtphoErqI4PKcTf25Kh6oacmeNBECjAjxtYPbHdgDqOQha1I9gKgcF6MXaY_axwz09fE11-NY8uWzLPt7I_bo7Y9jRXxkBI_2lzgvUQBaSxFDKHw7WP-fxrYs_CDH4kLB5JtAaz3x3ieNA6MucAF9S6VMpxLAaNFjgSci9rl95D5j3jFFUzF-nRYzxtS-480RjBUqIhvIULXSnkRvrULxV_YkwiIHHDEaBK_JZGtBIQl9KwfOK3_2SdSKSBt-p5wOQLZCh7C8kS6U5TkqrPAlphUdxQ__fLsd6sOaTGmIol-Ev_T6uuEtvCOIAFh14SgBwSV-fFUB17BYK6u2LM75AeBYTnJr9tL1_luUDa_0CptFeevMevHxdEbkO0Am-GL56qM7h9OBsFm6wcfLIAhNAxybrQlVVZRkNc9JNU5p5Bj1KmXw_W40?></g></svg>