<?plantuml 1.2026.1beta5?><svg xmlns="http://www.w3.org/2000/svg" xmlns:xlink="http://www.w3.org/1999/xlink" contentStyleType="text/css" data-diagram-type="SEQUENCE" height="530px" preserveAspectRatio="none" style="width:1002px;height:530px;background:#FFFFFF;" version="1.1" viewBox="0 0 1002 530" width="1002px" zoomAndPan="magnify"><title>&#12471;&#12540;&#12465;&#12531;&#12473;&#22259;: &#12481;&#12515;&#12483;&#12488;&#36865;&#20449;&#65288;&#20491;&#20154;/&#12464;&#12523;&#12540;&#12503;&#65289;</title><defs/><g><text fill="#000000" font-family="sans-serif" font-size="14" font-weight="bold" lengthAdjust="spacing" textLength="295.5847" x="352.049" y="27.9951">&#12471;&#12540;&#12465;&#12531;&#12473;&#22259;: &#12481;&#12515;&#12483;&#12488;&#36865;&#20449;&#65288;&#20491;&#20154;/&#12464;&#12523;&#12540;&#12503;&#65289;</text><g class="participant-lifeline" data-entity-uid="part1" data-qualified-name="User" id="part1-lifeline"><g><title>...</title><rect fill="#000000" fill-opacity="0.00000" height="315.3281" width="8" x="24.9999" y="120.8906"/><line style="stroke:#181818;stroke-width:0.5;stroke-dasharray:5,5;" x1="28" x2="28" y1="120.8906" y2="436.2188"/></g></g><g class="participant-lifeline" data-entity-uid="part2" data-qualified-name="Browser" id="part2-lifeline"><g><title>....</title><rect fill="#000000" fill-opacity="0.00000" height="315.3281" width="8" x="170.3799" y="120.8906"/><line style="stroke:#181818;stroke-width:0.5;stroke-dasharray:5,5;" x1="173.3801" x2="173.3801" y1="120.8906" y2="436.2188"/></g></g><g class="participant-lifeline" data-entity-uid="part3" data-qualified-name="ChatPHP" id="part3-lifeline"><g><title>PHP.chat.php</title><rect fill="#000000" fill-opacity="0.00000" height="315.3281" width="8" x="608.0313" y="120.8906"/><line style="stroke:#181818;stroke-width:0.5;stroke-dasharray:5,5;" x1="611.0992" x2="611.0992" y1="120.8906" y2="436.2188"/></g></g><g class="participant-lifeline" data-entity-uid="part4" data-qualified-name="DB" id="part4-lifeline"><g><title>sportdata_db</title><rect fill="#000000" fill-opacity="0.00000" height="315.3281" width="8" x="871.1602" y="120.8906"/><line style="stroke:#181818;stroke-width:0.5;stroke-dasharray:5,5;" x1="875.0108" x2="875.0108" y1="120.8906" y2="436.2188"/></g></g><g class="participant participant-head" data-entity-uid="part1" data-qualified-name="User" id="part1-head"><text fill="#000000" font-family="sans-serif" font-size="14" lengthAdjust="spacing" textLength="41.9998" x="5" y="117.5889">&#21033;&#29992;&#32773;</text><ellipse cx="28.9999" cy="53.0938" fill="#E2E2F0" rx="8" ry="8" style="stroke:#181818;stroke-width:0.5;"/><path d="M28.9999,61.0938 L28.9999,88.0938 M15.9999,69.0938 L41.9999,69.0938 M28.9999,88.0938 L15.9999,103.0938 M28.9999,88.0938 L41.9999,103.0938" fill="none" style="stroke:#181818;stroke-width:0.5;"/></g><g class="participant participant-tail" data-entity-uid="part1" data-qualified-name="User" id="part1-tail"><text fill="#000000" font-family="sans-serif" font-size="14" lengthAdjust="spacing" textLength="41.9998" x="5" y="448.2139">&#21033;&#29992;&#32773;</text><ellipse cx="28.9999" cy="460.0156" fill="#E2E2F0" rx="8" ry="8" style="stroke:#181818;stroke-width:0.5;"/><path d="M28.9999,468.0156 L28.9999,495.0156 M15.9999,476.0156 L41.9999,476.0156 M28.9999,495.0156 L15.9999,510.0156 M28.9999,495.0156 L41.9999,510.0156" fill="none" style="stroke:#181818;stroke-width:0.5;"/></g><g class="participant participant-head" data-entity-uid="part2" data-qualified-name="Browser" id="part2-head"><text fill="#000000" font-family="sans-serif" font-size="14" lengthAdjust="spacing" textLength="55.9998" x="143.3801" y="117.5889">&#12502;&#12521;&#12454;&#12470;</text><path d="M153.8799,76.5938 L153.8799,100.5938 M153.8799,88.5938 L170.8799,88.5938" fill="none" style="stroke:#181818;stroke-width:0.5;"/><ellipse cx="182.8799" cy="88.5938" fill="#E2E2F0" rx="12" ry="12" style="stroke:#181818;stroke-width:0.5;"/></g><g class="participant participant-tail" data-entity-uid="part2" data-qualified-name="Browser" id="part2-tail"><text fill="#000000" font-family="sans-serif" font-size="14" lengthAdjust="spacing" textLength="55.9998" x="143.3801" y="448.2139">&#12502;&#12521;&#12454;&#12470;</text><path d="M153.8799,455.5156 L153.8799,479.5156 M153.8799,467.5156 L170.8799,467.5156" fill="none" style="stroke:#181818;stroke-width:0.5;"/><ellipse cx="182.8799" cy="467.5156" fill="#E2E2F0" rx="12" ry="12" style="stroke:#181818;stroke-width:0.5;"/></g><g class="participant participant-head" data-entity-uid="part3" data-qualified-name="ChatPHP" id="part3-head"><text fill="#000000" font-family="sans-serif" font-size="14" lengthAdjust="spacing" textLength="93.8643" x="562.0992" y="117.5889">PHP/chat.php</text><ellipse cx="612.0313" cy="88.5938" fill="#E2E2F0" rx="12" ry="12" style="stroke:#181818;stroke-width:0.5;"/><polygon fill="#181818" points="608.0313,76.5938,614.0313,71.5938,612.0313,76.5938,614.0313,81.5938,608.0313,76.5938" style="stroke:#181818;stroke-width:1;"/></g><g class="participant participant-tail" data-entity-uid="part3" data-qualified-name="ChatPHP" id="part3-tail"><text fill="#000000" font-family="sans-serif" font-size="14" lengthAdjust="spacing" textLength="93.8643" x="562.0992" y="448.2139">PHP/chat.php</text><ellipse cx="612.0313" cy="467.5156" fill="#E2E2F0" rx="12" ry="12" style="stroke:#181818;stroke-width:0.5;"/><polygon fill="#181818" points="608.0313,455.5156,614.0313,450.5156,612.0313,455.5156,614.0313,460.5156,608.0313,455.5156" style="stroke:#181818;stroke-width:1;"/></g><g class="participant participant-head" data-entity-uid="part4" data-qualified-name="DB" id="part4-head"><text fill="#000000" font-family="sans-serif" font-size="14" lengthAdjust="spacing" textLength="92.2988" x="826.0108" y="101.292">sportdata_db</text><text fill="#000000" font-family="sans-serif" font-size="14" lengthAdjust="spacing" textLength="55.9043" x="844.2081" y="117.5889">chat_tbl</text><path d="M857.1602,52.2969 C857.1602,42.2969 875.1602,42.2969 875.1602,42.2969 C875.1602,42.2969 893.1602,42.2969 893.1602,52.2969 L893.1602,78.2969 C893.1602,88.2969 875.1602,88.2969 875.1602,88.2969 C875.1602,88.2969 857.1602,88.2969 857.1602,78.2969 L857.1602,52.2969" fill="#E2E2F0" style="stroke:#181818;stroke-width:0.5;"/><path d="M857.1602,52.2969 C857.1602,62.2969 875.1602,62.2969 875.1602,62.2969 C875.1602,62.2969 893.1602,62.2969 893.1602,52.2969" fill="none" style="stroke:#181818;stroke-width:0.5;"/></g><g class="participant participant-tail" data-entity-uid="part4" data-qualified-name="DB" id="part4-tail"><text fill="#000000" font-family="sans-serif" font-size="14" lengthAdjust="spacing" textLength="92.2988" x="826.0108" y="448.2139">sportdata_db</text><text fill="#000000" font-family="sans-serif" font-size="14" lengthAdjust="spacing" textLength="55.9043" x="844.2081" y="464.5107">chat_tbl</text><path d="M857.1602,477.8125 C857.1602,467.8125 875.1602,467.8125 875.1602,467.8125 C875.1602,467.8125 893.1602,467.8125 893.1602,477.8125 L893.1602,503.8125 C893.1602,513.8125 875.1602,513.8125 875.1602,513.8125 C875.1602,513.8125 857.1602,513.8125 857.1602,503.8125 L857.1602,477.8125" fill="#E2E2F0" style="stroke:#181818;stroke-width:0.5;"/><path d="M857.1602,477.8125 C857.1602,487.8125 875.1602,487.8125 875.1602,487.8125 C875.1602,487.8125 893.1602,487.8125 893.1602,477.8125" fill="none" style="stroke:#181818;stroke-width:0.5;"/></g><g class="message" data-entity-1="part1" data-entity-2="part2" id="msg1"><polygon fill="#181818" points="162.3799,148.0234,172.3799,152.0234,162.3799,156.0234,166.3799,152.0234" style="stroke:#181818;stroke-width:1;"/><line style="stroke:#181818;stroke-width:1;" x1="28.9999" x2="168.3799" y1="152.0234" y2="152.0234"/><text fill="#000000" font-family="sans-serif" font-size="13" lengthAdjust="spacing" textLength="121.38" x="35.9999" y="146.9575">&#12513;&#12483;&#12475;&#12540;&#12472;&#20837;&#21147;/&#36865;&#20449;</text></g><g class="message" data-entity-1="part2" data-entity-2="part3" id="msg2"><polygon fill="#181818" points="600.0313,177.1563,610.0313,181.1563,600.0313,185.1563,604.0313,181.1563" style="stroke:#181818;stroke-width:1;"/><line style="stroke:#181818;stroke-width:1;" x1="174.3799" x2="606.0313" y1="181.1563" y2="181.1563"/><text fill="#000000" font-family="sans-serif" font-size="13" lengthAdjust="spacing" textLength="413.6514" x="181.3799" y="176.0903">POST(chat_type, chat_group_id/recipient_id, message, (image))</text></g><g class="message" data-entity-1="part3" data-entity-2="part3" id="msg3"><line style="stroke:#181818;stroke-width:1;" x1="612.0313" x2="654.0313" y1="225.4219" y2="225.4219"/><line style="stroke:#181818;stroke-width:1;" x1="654.0313" x2="654.0313" y1="225.4219" y2="238.4219"/><line style="stroke:#181818;stroke-width:1;" x1="613.0313" x2="654.0313" y1="238.4219" y2="238.4219"/><polygon fill="#181818" points="623.0313,234.4219,613.0313,238.4219,623.0313,242.4219,619.0313,238.4219" style="stroke:#181818;stroke-width:1;"/><text fill="#000000" font-family="sans-serif" font-size="13" lengthAdjust="spacing" textLength="91.0001" x="619.0313" y="205.2231">&#12475;&#12483;&#12471;&#12519;&#12531;&#30906;&#35469;</text><text fill="#000000" font-family="sans-serif" font-size="13" lengthAdjust="spacing" textLength="117.3999" x="619.0313" y="220.356">(group_id,user_id)</text></g><g class="message" data-entity-1="part3" data-entity-2="part4" id="msg4"><polygon fill="#181818" points="863.1602,263.5547,873.1602,267.5547,863.1602,271.5547,867.1602,267.5547" style="stroke:#181818;stroke-width:1;"/><line style="stroke:#181818;stroke-width:1;" x1="612.0313" x2="869.1602" y1="267.5547" y2="267.5547"/><text fill="#000000" font-family="sans-serif" font-size="13" lengthAdjust="spacing" textLength="239.1289" x="619.0313" y="262.4888">INSERT INTO chat_tbl(...) VALUES(...)</text></g><g class="message" data-entity-1="part4" data-entity-2="part3" id="msg5"><polygon fill="#181818" points="623.0313,292.6875,613.0313,296.6875,623.0313,300.6875,619.0313,296.6875" style="stroke:#181818;stroke-width:1;"/><line style="stroke:#181818;stroke-width:1;stroke-dasharray:2,2;" x1="617.0313" x2="874.1602" y1="296.6875" y2="296.6875"/><text fill="#000000" font-family="sans-serif" font-size="13" lengthAdjust="spacing" textLength="66.7647" x="629.0313" y="291.6216">OK(&#26032;&#35215;id)</text></g><g class="message" data-entity-1="part3" data-entity-2="part2" id="msg6"><polygon fill="#181818" points="185.3799,321.8203,175.3799,325.8203,185.3799,329.8203,181.3799,325.8203" style="stroke:#181818;stroke-width:1;"/><line style="stroke:#181818;stroke-width:1;stroke-dasharray:2,2;" x1="179.3799" x2="611.0313" y1="325.8203" y2="325.8203"/><text fill="#000000" font-family="sans-serif" font-size="13" lengthAdjust="spacing" textLength="137.5982" x="191.3799" y="320.7544">JSON/HTML&#12391;&#32080;&#26524;&#36820;&#21364;</text></g><g class="message" data-entity-1="part2" data-entity-2="part2" id="msg7"><line style="stroke:#181818;stroke-width:1;" x1="174.3799" x2="216.3799" y1="354.9531" y2="354.9531"/><line style="stroke:#181818;stroke-width:1;" x1="216.3799" x2="216.3799" y1="354.9531" y2="367.9531"/><line style="stroke:#181818;stroke-width:1;" x1="175.3799" x2="216.3799" y1="367.9531" y2="367.9531"/><polygon fill="#181818" points="185.3799,363.9531,175.3799,367.9531,185.3799,371.9531,181.3799,367.9531" style="stroke:#181818;stroke-width:1;"/><text fill="#000000" font-family="sans-serif" font-size="13" lengthAdjust="spacing" textLength="143.3493" x="181.3799" y="349.8872">UI&#12395;&#36865;&#20449;&#12513;&#12483;&#12475;&#12540;&#12472;&#21453;&#26144;</text></g><path d="M754,380.9531 L754,420.9531 L995,420.9531 L995,390.9531 L985,380.9531 L754,380.9531" fill="#FEFFDD" style="stroke:#181818;stroke-width:0.5;"/><path d="M985,380.9531 L985,390.9531 L995,390.9531 L985,380.9531" fill="#FEFFDD" style="stroke:#181818;stroke-width:0.5;"/><text fill="#000000" font-family="sans-serif" font-size="13" lengthAdjust="spacing" textLength="220.6827" x="760" y="398.02">&#26082;&#35501;&#12399; chat_read_status_tbl &#12391;&#31649;&#29702;</text><text fill="#000000" font-family="sans-serif" font-size="13" lengthAdjust="spacing" textLength="127.1437" x="760" y="413.1528">(&#19968;&#35239;&#12420;&#21462;&#24471;&#26178;&#12395;&#26356;&#26032;)</text><?plantuml-src NL1DRzD04BtlhrZvv4XfVCy1YT1ABVr8H19EbQ9Dl6ejfRPbRq2znLwA0YXA3rLI55GrHIIqLQ5L2vGGqHypiMDE_Gki7HamfvdTUVFUlCSqLgSOt6_09-1U0Ry6zxlNlyvYu0xmzy0vyDQlfZEz6znFMbxppNGyLi2z17uUhl3U_UGLGgJ630kNRMfXOcF9QvtE3Zu6pJq9LOs6hX9h5-Siutay1zu5VWhk4Dol4gePEhECEdwqJLXXkH0XH5Lgufqnjqq9gOIHAh4fNin5KziqB1P-LjJgfXxYAgnQbn2ABbXuy4Sij348FRW_8eEttju7xtLVcHj2CKninE9PNCWNI_ASSzUaQHorMvRHC2kQgbYqffaQrPbufF4EjMso9K2ojYDgAeLYdWHb9C-Zb4SYujd9E3XhR-fop9fkY2j4JQmBhrcyib5SUb8IfPJ7iKyvaycayDE7Q-MbOjGZ0Lr82EPNPRzx6Gmx2Sv4C8-B-GrbkRI-1ivezcNVFteNt1ruxPj_G_cBBg-0SpvFxVz4Est_y1WXtM0K6yy4UZ67_Dv9S7O1pkVvqHObQiLcX3Niq00E9JyDPlilaJozRGR34RWll4xN-zdptxf2oE_VYFDJYEeg3db_0m00?></g></svg>