<?plantuml 1.2026.1beta5?><svg xmlns="http://www.w3.org/2000/svg" xmlns:xlink="http://www.w3.org/1999/xlink" contentStyleType="text/css" data-diagram-type="DESCRIPTION" height="1760px" preserveAspectRatio="none" style="width:659px;height:1760px;background:#FFFFFF;" version="1.1" viewBox="0 0 659 1760" width="659px" zoomAndPan="magnify"><title>SportDataApp &#12518;&#12540;&#12473;&#12465;&#12540;&#12473;&#22259;&#65288;&#27010;&#35201;&#65289;</title><defs/><g><g class="title" data-source-line="1"><text fill="#000000" font-family="sans-serif" font-size="14" font-weight="bold" lengthAdjust="spacing" textLength="270.2786" x="187.3707" y="22.9951">SportDataApp &#12518;&#12540;&#12473;&#12465;&#12540;&#12473;&#22259;&#65288;&#27010;&#35201;&#65289;</text></g><!--cluster SportDataApp--><g class="cluster" data-qualified-name="SportDataApp" data-source-line="9" id="ent0005"><rect fill="none" height="1545" rx="2.5" ry="2.5" style="stroke:#181818;stroke-width:1;" width="502.02" x="151" y="154.9369"/><text fill="#000000" font-family="sans-serif" font-size="14" font-weight="bold" lengthAdjust="spacing" textLength="111.4053" x="346.3074" y="169.932">SportDataApp</text></g><!--entity UC_Login--><g class="entity" data-qualified-name="SportDataApp.UC_Login" data-source-line="10" id="ent0006"><ellipse cx="265.4878" cy="1053.9405" fill="#F1F1F1" rx="42.5978" ry="14.5236" style="stroke:#181818;stroke-width:0.5;"/><text fill="#000000" font-family="sans-serif" font-size="14" lengthAdjust="spacing" textLength="55.9998" x="237.4879" y="1058.5889">&#12525;&#12464;&#12452;&#12531;</text></g><!--entity UC_Reg--><g class="entity" data-qualified-name="SportDataApp.UC_Reg" data-source-line="11" id="ent0007"><ellipse cx="265.4942" cy="1117.9397" fill="#F1F1F1" rx="61.5142" ry="14.7028" style="stroke:#181818;stroke-width:0.5;"/><text fill="#000000" font-family="sans-serif" font-size="14" lengthAdjust="spacing" textLength="83.9996" x="223.4944" y="1122.5882">&#12518;&#12540;&#12470;&#12540;&#30331;&#37682;</text></g><!--entity UC_Home--><g class="entity" data-qualified-name="SportDataApp.UC_Home" data-source-line="12" id="ent0008"><ellipse cx="265.4873" cy="1181.9405" fill="#F1F1F1" rx="52.4973" ry="14.5236" style="stroke:#181818;stroke-width:0.5;"/><text fill="#000000" font-family="sans-serif" font-size="14" lengthAdjust="spacing" textLength="69.9997" x="230.4874" y="1186.5889">&#12507;&#12540;&#12512;&#38322;&#35239;</text></g><!--entity UC_Goal--><g class="entity" data-qualified-name="SportDataApp.UC_Goal" data-source-line="14" id="ent0009"><ellipse cx="265.486" cy="1247.9381" fill="#F1F1F1" rx="68.556" ry="16.1112" style="stroke:#181818;stroke-width:0.5;"/><text fill="#000000" font-family="sans-serif" font-size="14" lengthAdjust="spacing" textLength="102.7164" x="214.1278" y="1252.5865">&#30446;&#27161;&#12434;&#30331;&#37682;/&#26356;&#26032;</text></g><!--entity UC_PI--><g class="entity" data-qualified-name="SportDataApp.UC_PI" data-source-line="15" id="ent0010"><ellipse cx="265.4876" cy="1313.9405" fill="#F1F1F1" rx="41.5876" ry="14.5236" style="stroke:#181818;stroke-width:0.5;"/><text fill="#000000" font-family="sans-serif" font-size="14" lengthAdjust="spacing" textLength="54.5711" x="238.202" y="1318.5889">PI&#12434;&#35352;&#37682;</text></g><!--entity UC_DiaryCRUD--><g class="entity" data-qualified-name="SportDataApp.UC_DiaryCRUD" data-source-line="16" id="ent0011"><ellipse cx="265.4882" cy="1381.9325" fill="#F1F1F1" rx="82.0282" ry="18.8056" style="stroke:#181818;stroke-width:0.5;"/><text fill="#000000" font-family="sans-serif" font-size="14" lengthAdjust="spacing" textLength="135.433" x="197.7717" y="1386.5809">&#26085;&#35352;&#12434;&#25237;&#31295;/&#32232;&#38598;/&#21066;&#38500;</text></g><!--entity UC_DiarySubmit--><g class="entity" data-qualified-name="SportDataApp.UC_DiarySubmit" data-source-line="17" id="ent0012"><ellipse cx="558.9959" cy="207.9321" fill="#F1F1F1" rx="78.0259" ry="18.0052" style="stroke:#181818;stroke-width:0.5;"/><text fill="#000000" font-family="sans-serif" font-size="14" lengthAdjust="spacing" textLength="125.9995" x="495.9962" y="212.5805">&#26085;&#35352;&#12434;&#31649;&#29702;&#32773;&#12408;&#25552;&#20986;</text></g><!--entity UC_ChatSend--><g class="entity" data-qualified-name="SportDataApp.UC_ChatSend" data-source-line="19" id="ent0013"><ellipse cx="265.4942" cy="1450.9397" fill="#F1F1F1" rx="61.5142" ry="14.7028" style="stroke:#181818;stroke-width:0.5;"/><text fill="#000000" font-family="sans-serif" font-size="14" lengthAdjust="spacing" textLength="83.9996" x="223.4944" y="1455.5882">&#12481;&#12515;&#12483;&#12488;&#36865;&#20449;</text></g><!--entity UC_ChatRead--><g class="entity" data-qualified-name="SportDataApp.UC_ChatRead" data-source-line="20" id="ent0014"><ellipse cx="265.4899" cy="1519.9348" fill="#F1F1F1" rx="86.0399" ry="19.608" style="stroke:#181818;stroke-width:0.5;"/><text fill="#000000" font-family="sans-serif" font-size="14" lengthAdjust="spacing" textLength="144.7162" x="193.1318" y="1524.5833">&#12481;&#12515;&#12483;&#12488;&#38322;&#35239;/&#26410;&#35501;&#31649;&#29702;</text></g><!--entity UC_GroupCreate--><g class="entity" data-qualified-name="SportDataApp.UC_GroupCreate" data-source-line="21" id="ent0015"><ellipse cx="265.4931" cy="1593.9355" fill="#F1F1F1" rx="83.9931" ry="19.1986" style="stroke:#181818;stroke-width:0.5;"/><text fill="#000000" font-family="sans-serif" font-size="14" lengthAdjust="spacing" textLength="139.9994" x="195.4934" y="1598.5839">&#12464;&#12523;&#12540;&#12503;&#12481;&#12515;&#12483;&#12488;&#20316;&#25104;</text></g><!--entity UC_GroupManage--><g class="entity" data-qualified-name="SportDataApp.UC_GroupManage" data-source-line="22" id="ent0016"><ellipse cx="265.4931" cy="287.9355" fill="#F1F1F1" rx="83.9931" ry="19.1986" style="stroke:#181818;stroke-width:0.5;"/><text fill="#000000" font-family="sans-serif" font-size="14" lengthAdjust="spacing" textLength="139.9994" x="195.4934" y="292.5839">&#12464;&#12523;&#12540;&#12503;&#12513;&#12531;&#12496;&#12540;&#31649;&#29702;</text></g><!--entity UC_Calendar--><g class="entity" data-qualified-name="SportDataApp.UC_Calendar" data-source-line="24" id="ent0017"><ellipse cx="265.486" cy="357.9381" fill="#F1F1F1" rx="68.556" ry="16.1112" style="stroke:#181818;stroke-width:0.5;"/><text fill="#000000" font-family="sans-serif" font-size="14" lengthAdjust="spacing" textLength="102.7164" x="214.1278" y="362.5865">&#20104;&#23450;&#12434;&#30331;&#37682;/&#20849;&#26377;</text></g><!--entity UC_Inquiry--><g class="entity" data-qualified-name="SportDataApp.UC_Inquiry" data-source-line="25" id="ent0018"><ellipse cx="265.4852" cy="424.9319" fill="#F1F1F1" rx="66.7252" ry="15.745" style="stroke:#181818;stroke-width:0.5;"/><text fill="#000000" font-family="sans-serif" font-size="14" lengthAdjust="spacing" textLength="97.9996" x="216.4854" y="429.5804">&#21839;&#12356;&#21512;&#12431;&#12379;&#36865;&#20449;</text></g><!--entity UC_Admin--><g class="entity" data-qualified-name="SportDataApp.UC_Admin" data-source-line="27" id="ent0019"><ellipse cx="559.0042" cy="275.9397" fill="#F1F1F1" rx="61.5142" ry="14.7028" style="stroke:#181818;stroke-width:0.5;"/><text fill="#000000" font-family="sans-serif" font-size="14" lengthAdjust="spacing" textLength="83.9996" x="517.0044" y="280.5882">&#31649;&#29702;&#30011;&#38754;&#38322;&#35239;</text></g><!--entity UC_InquiryReply--><g class="entity" data-qualified-name="SportDataApp.UC_InquiryReply" data-source-line="28" id="ent0020"><ellipse cx="265.4852" cy="988.9319" fill="#F1F1F1" rx="66.7252" ry="15.745" style="stroke:#181818;stroke-width:0.5;"/><text fill="#000000" font-family="sans-serif" font-size="14" lengthAdjust="spacing" textLength="97.9996" x="216.4854" y="993.5804">&#21839;&#12356;&#21512;&#12431;&#12379;&#36820;&#20449;</text></g><!--entity UC_DiaryFeedback--><g class="entity" data-qualified-name="SportDataApp.UC_DiaryFeedback" data-source-line="29" id="ent0021"><ellipse cx="265.49" cy="1665.9329" fill="#F1F1F1" rx="75.68" ry="17.536" style="stroke:#181818;stroke-width:0.5;"/><text fill="#000000" font-family="sans-serif" font-size="14" lengthAdjust="spacing" textLength="120.3736" x="205.3032" y="1670.5813">&#25552;&#20986;&#26085;&#35352;&#12398;&#38322;&#35239;/FB</text></g><!--entity UC_AdminRoleAction--><g class="entity" data-qualified-name="SportDataApp.UC_AdminRoleAction" data-source-line="30" id="ent0022"><ellipse cx="265.4863" cy="211.9341" fill="#F1F1F1" rx="98.4863" ry="22.0973" style="stroke:#181818;stroke-width:0.5;"/><text fill="#000000" font-family="sans-serif" font-size="14" lengthAdjust="spacing" textLength="172.7161" x="179.1283" y="216.5826">&#31649;&#29702;&#32773;&#27177;&#38480;&#30003;&#35531;&#12434;&#25215;&#35469;/&#21364;&#19979;</text></g><!--entity UC_SwimInput--><g class="entity" data-qualified-name="SportDataApp.UC_SwimInput" data-source-line="32" id="ent0023"><ellipse cx="265.4852" cy="490.9319" fill="#F1F1F1" rx="66.7252" ry="15.745" style="stroke:#181818;stroke-width:0.5;"/><text fill="#000000" font-family="sans-serif" font-size="14" lengthAdjust="spacing" textLength="97.9996" x="216.4854" y="495.5804">&#27700;&#27891;&#35352;&#37682;&#12434;&#20837;&#21147;</text></g><!--entity UC_SwimAnalyze--><g class="entity" data-qualified-name="SportDataApp.UC_SwimAnalyze" data-source-line="33" id="ent0024"><ellipse cx="265.4869" cy="559.9403" fill="#F1F1F1" rx="80.0169" ry="18.4034" style="stroke:#181818;stroke-width:0.5;"/><text fill="#000000" font-family="sans-serif" font-size="14" lengthAdjust="spacing" textLength="130.7162" x="200.1288" y="564.5887">&#27700;&#27891;&#35352;&#37682;&#12434;&#20998;&#26512;/&#38322;&#35239;</text></g><!--entity UC_SwimPractice--><g class="entity" data-qualified-name="SportDataApp.UC_SwimPractice" data-source-line="34" id="ent0025"><ellipse cx="265.4931" cy="632.9355" fill="#F1F1F1" rx="83.9931" ry="19.1986" style="stroke:#181818;stroke-width:0.5;"/><text fill="#000000" font-family="sans-serif" font-size="14" lengthAdjust="spacing" textLength="139.9994" x="195.4934" y="637.5839">&#27700;&#27891;&#32244;&#32722;&#12513;&#12491;&#12517;&#12540;&#20316;&#25104;</text></g><!--entity UC_Tennis--><g class="entity" data-qualified-name="SportDataApp.UC_Tennis" data-source-line="36" id="ent0026"><ellipse cx="265.4924" cy="703.9374" fill="#F1F1F1" rx="72.2524" ry="16.8505" style="stroke:#181818;stroke-width:0.5;"/><text fill="#000000" font-family="sans-serif" font-size="14" lengthAdjust="spacing" textLength="111.9995" x="209.4927" y="708.5858">&#12486;&#12491;&#12473;&#35430;&#21512;&#12434;&#35352;&#37682;</text></g><!--entity UC_TennisStrategy--><g class="entity" data-qualified-name="SportDataApp.UC_TennisStrategy" data-source-line="37" id="ent0027"><ellipse cx="265.4859" cy="773.9321" fill="#F1F1F1" rx="78.0259" ry="18.0052" style="stroke:#181818;stroke-width:0.5;"/><text fill="#000000" font-family="sans-serif" font-size="14" lengthAdjust="spacing" textLength="125.9995" x="202.4862" y="778.5805">&#12486;&#12491;&#12473;&#20316;&#25126;&#30436;&#12434;&#20445;&#23384;</text></g><!--entity UC_Basketball--><g class="entity" data-qualified-name="SportDataApp.UC_Basketball" data-source-line="39" id="ent0028"><ellipse cx="265.4899" cy="846.9348" fill="#F1F1F1" rx="86.0399" ry="19.608" style="stroke:#181818;stroke-width:0.5;"/><text fill="#000000" font-family="sans-serif" font-size="14" lengthAdjust="spacing" textLength="144.7162" x="193.1318" y="851.5833">&#12496;&#12473;&#12465;&#35430;&#21512;&#12434;&#38283;&#22987;/&#35352;&#37682;</text></g><!--entity UC_BasketballStrategy--><g class="entity" data-qualified-name="SportDataApp.UC_BasketballStrategy" data-source-line="40" id="ent0029"><ellipse cx="265.4859" cy="919.9321" fill="#F1F1F1" rx="78.0259" ry="18.0052" style="stroke:#181818;stroke-width:0.5;"/><text fill="#000000" font-family="sans-serif" font-size="14" lengthAdjust="spacing" textLength="125.9995" x="202.4862" y="924.5805">&#12496;&#12473;&#12465;&#20316;&#25126;&#30436;&#12434;&#20445;&#23384;</text></g><!--entity User--><g class="entity" data-qualified-name="User" data-source-line="5" id="ent0002"><ellipse cx="54.9998" cy="838.2969" fill="#F1F1F1" rx="8" ry="8" style="stroke:#181818;stroke-width:0.5;"/><path d="M54.9998,846.2969 L54.9998,873.2969 M41.9998,854.2969 L67.9998,854.2969 M54.9998,873.2969 L41.9998,888.2969 M54.9998,873.2969 L67.9998,888.2969" fill="none" style="stroke:#181818;stroke-width:0.5;"/><text fill="#000000" font-family="sans-serif" font-size="14" lengthAdjust="spacing" textLength="83.9996" x="13" y="902.792">&#19968;&#33324;&#12518;&#12540;&#12470;&#12540;</text></g><!--entity Admin--><g class="entity" data-qualified-name="Admin" data-source-line="6" id="ent0003"><ellipse cx="54.9999" cy="1636.2969" fill="#F1F1F1" rx="8" ry="8" style="stroke:#181818;stroke-width:0.5;"/><path d="M54.9999,1644.2969 L54.9999,1671.2969 M41.9999,1652.2969 L67.9999,1652.2969 M54.9999,1671.2969 L41.9999,1686.2969 M54.9999,1671.2969 L67.9999,1686.2969" fill="none" style="stroke:#181818;stroke-width:0.5;"/><text fill="#000000" font-family="sans-serif" font-size="14" lengthAdjust="spacing" textLength="41.9998" x="34" y="1700.792">&#31649;&#29702;&#32773;</text></g><!--entity SuperAdmin--><g class="entity" data-qualified-name="SuperAdmin" data-source-line="7" id="ent0004"><ellipse cx="54.9998" cy="51.2969" fill="#F1F1F1" rx="8" ry="8" style="stroke:#181818;stroke-width:0.5;"/><path d="M54.9998,59.2969 L54.9998,86.2969 M41.9998,67.2969 L67.9998,67.2969 M54.9998,86.2969 L41.9998,101.2969 M54.9998,86.2969 L67.9998,101.2969" fill="none" style="stroke:#181818;stroke-width:0.5;"/><text fill="#000000" font-family="sans-serif" font-size="14" lengthAdjust="spacing" textLength="97.9996" x="6" y="115.792">&#12473;&#12540;&#12497;&#12540;&#31649;&#29702;&#32773;</text></g><!--link User to UC_Login--><g class="link" data-entity-1="ent0002" data-entity-2="ent0006" data-link-type="dependency" data-source-line="43" id="lnk30"><path d="M97.23,901.1469 C111.58,914.9769 126.25,932.1869 135,950.9369 C141.71,965.3269 132.62,1009.9269 143,1021.9369 C162.47,1044.4669 189.7299,1051.5782 216.5299,1053.7682" fill="none" id="User-to-UC_Login" style="stroke:#181818;stroke-width:1;"/><polygon fill="#181818" points="222.51,1054.2569,213.8657,1049.5372,217.5266,1053.8497,213.2141,1057.5106,222.51,1054.2569" style="stroke:#181818;stroke-width:1;"/></g><!--link User to UC_Reg--><g class="link" data-entity-1="ent0002" data-entity-2="ent0007" data-link-type="dependency" data-source-line="44" id="lnk31"><path d="M87.24,906.5369 C104.46,930.0569 124.43,961.5569 135,992.9369 C141.62,1012.5969 129.64,1070.0669 143,1085.9369 C158.03,1103.7969 175.7969,1111.2994 198.2869,1115.1694" fill="none" id="User-to-UC_Reg" style="stroke:#181818;stroke-width:1;"/><polygon fill="#181818" points="204.2,1116.1869,196.0087,1110.7186,199.2724,1115.339,194.652,1118.6027,204.2,1116.1869" style="stroke:#181818;stroke-width:1;"/></g><!--link User to UC_Home--><g class="link" data-entity-1="ent0002" data-entity-2="ent0008" data-link-type="dependency" data-source-line="45" id="lnk32"><path d="M79.35,906.5169 C97.97,939.3869 122.87,988.5469 135,1034.9369 C138.24,1047.3369 134.83,1140.0769 143,1149.9369 C159.83,1170.2769 181.9345,1177.8077 206.8445,1180.8577" fill="none" id="User-to-UC_Home" style="stroke:#181818;stroke-width:1;"/><polygon fill="#181818" points="212.8,1181.5869,204.3528,1176.5227,207.8371,1180.9792,203.3806,1184.4634,212.8,1181.5869" style="stroke:#181818;stroke-width:1;"/></g><!--link User to UC_Goal--><g class="link" data-entity-1="ent0002" data-entity-2="ent0009" data-link-type="dependency" data-source-line="46" id="lnk33"><path d="M74.47,906.5569 C93.37,948.0769 121.79,1016.5669 135,1078.9369 C138.11,1093.6369 133.57,1202.2469 143,1213.9369 C156.54,1230.7369 171.791,1238.3436 192.631,1242.9436" fill="none" id="User-to-UC_Goal" style="stroke:#181818;stroke-width:1;"/><polygon fill="#181818" points="198.49,1244.2369,190.5637,1238.391,193.6075,1243.1592,188.8394,1246.203,198.49,1244.2369" style="stroke:#181818;stroke-width:1;"/></g><!--link User to UC_PI--><g class="link" data-entity-1="ent0002" data-entity-2="ent0010" data-link-type="dependency" data-source-line="47" id="lnk34"><path d="M70.92,906.4269 C89.61,956.5569 120.87,1047.3169 135,1127.9369 C137.96,1144.8169 132.19,1268.6469 143,1281.9369 C162.12,1305.4669 190.3139,1312.4681 217.5539,1314.3281" fill="none" id="User-to-UC_PI" style="stroke:#181818;stroke-width:1;"/><polygon fill="#181818" points="223.54,1314.7369,214.8334,1310.1331,218.5516,1314.3963,214.2884,1318.1145,223.54,1314.7369" style="stroke:#181818;stroke-width:1;"/></g><!--link User to UC_DiaryCRUD--><g class="link" data-entity-1="ent0002" data-entity-2="ent0011" data-link-type="dependency" data-source-line="48" id="lnk35"><path d="M68.03,906.5069 C86.09,966.2969 119.75,1085.3169 135,1188.9369 C137.54,1206.2269 132.2,1332.2169 143,1345.9369 C154.43,1360.4569 165.6978,1367.587 183.3878,1372.947" fill="none" id="User-to-UC_DiaryCRUD" style="stroke:#181818;stroke-width:1;"/><polygon fill="#181818" points="189.13,1374.6869,181.6766,1368.2489,184.3448,1373.237,179.3568,1375.9052,189.13,1374.6869" style="stroke:#181818;stroke-width:1;"/></g><!--link User to UC_DiarySubmit--><g class="link" data-entity-1="ent0002" data-entity-2="ent0012" data-link-type="dependency" data-source-line="49" id="lnk36"><path d="M57.89,829.3869 C65.14,689.6869 93.25,215.8669 143,171.9369 C252.92,74.9069 443.6386,151.5444 520.4686,188.7044" fill="none" id="User-to-UC_DiarySubmit" style="stroke:#181818;stroke-width:1;"/><polygon fill="#181818" points="525.87,191.3169,519.5096,183.7972,521.3688,189.1398,516.0263,190.9991,525.87,191.3169" style="stroke:#181818;stroke-width:1;"/></g><!--link User to UC_ChatSend--><g class="link" data-entity-1="ent0002" data-entity-2="ent0013" data-link-type="dependency" data-source-line="50" id="lnk37"><path d="M65.44,906.5569 C82.47,977.9869 118.16,1135.8069 135,1270.9369 C137.02,1287.1769 132.71,1405.2169 143,1417.9369 C157.77,1436.2069 175.6516,1443.9125 198.2816,1447.9125" fill="none" id="User-to-UC_ChatSend" style="stroke:#181818;stroke-width:1;"/><polygon fill="#181818" points="204.19,1448.9569,196.0236,1443.4514,199.2663,1448.0866,194.6311,1451.3293,204.19,1448.9569" style="stroke:#181818;stroke-width:1;"/></g><!--link User to UC_ChatRead--><g class="link" data-entity-1="ent0002" data-entity-2="ent0014" data-link-type="dependency" data-source-line="51" id="lnk38"><path d="M62.58,906.4369 C77.25,993.2169 113.03,1210.7969 135,1393.9369 C137.36,1413.6569 130.48,1467.5269 143,1482.9369 C154.33,1496.8869 165.0502,1503.8636 182.1802,1509.3936" fill="none" id="User-to-UC_ChatRead" style="stroke:#181818;stroke-width:1;"/><polygon fill="#181818" points="187.89,1511.2369,180.5541,1504.6654,183.1318,1509.7008,178.0964,1512.2785,187.89,1511.2369" style="stroke:#181818;stroke-width:1;"/></g><!--link User to UC_GroupCreate--><g class="link" data-entity-1="ent0002" data-entity-2="ent0015" data-link-type="dependency" data-source-line="52" id="lnk39"><path d="M55.56,906.3069 C54.85,1036.2969 59.17,1457.4969 143,1556.9369 C154.86,1571.0169 166.1843,1578.0533 183.7743,1583.5633" fill="none" id="User-to-UC_GroupCreate" style="stroke:#181818;stroke-width:1;"/><polygon fill="#181818" points="189.5,1585.3569,182.1072,1578.8495,184.7286,1583.8623,179.7158,1586.4837,189.5,1585.3569" style="stroke:#181818;stroke-width:1;"/></g><!--link User to UC_GroupManage--><g class="link" data-entity-1="ent0002" data-entity-2="ent0016" data-link-type="dependency" data-source-line="53" id="lnk40"><path d="M56.95,829.6469 C60.48,718.5569 76.33,399.3569 143,323.9369 C155.02,310.3469 166.1786,303.5521 183.5486,298.1721" fill="none" id="User-to-UC_GroupManage" style="stroke:#181818;stroke-width:1;"/><polygon fill="#181818" points="189.28,296.3969,179.4995,295.2387,184.5038,297.8762,181.8664,302.8806,189.28,296.3969" style="stroke:#181818;stroke-width:1;"/></g><!--link User to UC_Calendar--><g class="link" data-entity-1="ent0002" data-entity-2="ent0017" data-link-type="dependency" data-source-line="54" id="lnk41"><path d="M57.9,829.3569 C63.69,727.7569 84.41,456.1869 143,391.9369 C157.46,376.0769 172.7989,368.7051 193.4589,364.0151" fill="none" id="User-to-UC_Calendar" style="stroke:#181818;stroke-width:1;"/><polygon fill="#181818" points="199.31,362.6869,189.6478,360.7785,194.4341,363.7938,191.4188,368.58,199.31,362.6869" style="stroke:#181818;stroke-width:1;"/></g><!--link User to UC_Inquiry--><g class="link" data-entity-1="ent0002" data-entity-2="ent0018" data-link-type="dependency" data-source-line="55" id="lnk42"><path d="M59.12,829.3969 C67.29,737.9669 92.26,511.6069 143,457.9369 C158.01,442.0569 173.9712,434.7949 194.9912,430.3249" fill="none" id="User-to-UC_Inquiry" style="stroke:#181818;stroke-width:1;"/><polygon fill="#181818" points="200.86,429.0769,191.2248,427.0364,195.9694,430.1169,192.8889,434.8614,200.86,429.0769" style="stroke:#181818;stroke-width:1;"/></g><!--link User to UC_SwimInput--><g class="link" data-entity-1="ent0002" data-entity-2="ent0023" data-link-type="dependency" data-source-line="56" id="lnk43"><path d="M60.83,829.3669 C71.66,748.9769 100.31,567.3869 143,523.9369 C158.32,508.3469 174.3434,501.1652 195.3234,496.6652" fill="none" id="User-to-UC_SwimInput" style="stroke:#181818;stroke-width:1;"/><polygon fill="#181818" points="201.19,495.4069,191.5513,493.3833,196.3012,496.4555,193.229,501.2054,201.19,495.4069" style="stroke:#181818;stroke-width:1;"/></g><!--link User to UC_SwimAnalyze--><g class="link" data-entity-1="ent0002" data-entity-2="ent0024" data-link-type="dependency" data-source-line="57" id="lnk44"><path d="M57.37,829.6869 C61.56,771.1269 78.16,659.4069 143,595.9369 C156.83,582.3969 169.7414,575.5673 188.3014,570.2573" fill="none" id="User-to-UC_SwimAnalyze" style="stroke:#181818;stroke-width:1;"/><polygon fill="#181818" points="194.07,568.6069,184.3169,567.2367,189.2629,569.9822,186.5174,574.9281,194.07,568.6069" style="stroke:#181818;stroke-width:1;"/></g><!--link User to UC_SwimPractice--><g class="link" data-entity-1="ent0002" data-entity-2="ent0025" data-link-type="dependency" data-source-line="58" id="lnk45"><path d="M62.88,829.4769 C72.84,784.8669 95.56,712.0769 143,669.9369 C157.34,657.2069 170.2203,650.5618 188.5603,645.0918" fill="none" id="User-to-UC_SwimPractice" style="stroke:#181818;stroke-width:1;"/><polygon fill="#181818" points="194.31,643.3769,184.5422,642.1161,189.5186,644.8059,186.8287,649.7823,194.31,643.3769" style="stroke:#181818;stroke-width:1;"/></g><!--link User to UC_Tennis--><g class="link" data-entity-1="ent0002" data-entity-2="ent0026" data-link-type="dependency" data-source-line="59" id="lnk46"><path d="M72.6,829.4469 C87.11,800.2169 110.89,761.2069 143,737.9369 C160.29,725.4169 176.2143,718.9325 196.5043,713.9325" fill="none" id="User-to-UC_Tennis" style="stroke:#181818;stroke-width:1;"/><polygon fill="#181818" points="202.33,712.4969,192.6343,710.7665,197.4752,713.6932,194.5485,718.5341,202.33,712.4969" style="stroke:#181818;stroke-width:1;"/></g><!--link User to UC_TennisStrategy--><g class="link" data-entity-1="ent0002" data-entity-2="ent0027" data-link-type="dependency" data-source-line="60" id="lnk47"><path d="M97.42,836.6569 C111.38,827.1269 127.38,817.2569 143,809.9369 C163.72,800.2369 181.8642,794.0658 202.9842,788.2658" fill="none" id="User-to-UC_TennisStrategy" style="stroke:#181818;stroke-width:1;"/><polygon fill="#181818" points="208.77,786.6769,199.032,785.203,203.9485,788.001,201.1506,792.9174,208.77,786.6769" style="stroke:#181818;stroke-width:1;"/></g><!--link User to UC_Basketball--><g class="link" data-entity-1="ent0002" data-entity-2="ent0028" data-link-type="dependency" data-source-line="61" id="lnk48"><path d="M97.19,863.7969 C122.59,861.2369 150.0102,858.4684 180.2802,855.4184" fill="none" id="User-to-UC_Basketball" style="stroke:#181818;stroke-width:1;"/><polygon fill="#181818" points="186.25,854.8169,176.8943,851.7393,181.2752,855.3181,177.6964,859.699,186.25,854.8169" style="stroke:#181818;stroke-width:1;"/></g><!--link User to UC_BasketballStrategy--><g class="link" data-entity-1="ent0002" data-entity-2="ent0029" data-link-type="dependency" data-source-line="62" id="lnk49"><path d="M97.19,878.2169 C129.82,886.3569 169.8383,896.3351 205.2883,905.1751" fill="none" id="User-to-UC_BasketballStrategy" style="stroke:#181818;stroke-width:1;"/><polygon fill="#181818" points="211.11,906.6269,203.3452,900.5681,206.2586,905.4171,201.4096,908.3304,211.11,906.6269" style="stroke:#181818;stroke-width:1;"/></g><!--link Admin to UC_Admin--><g class="link" data-entity-1="ent0003" data-entity-2="ent0019" data-link-type="dependency" data-source-line="64" id="lnk50"><path d="M76.23,1675.7869 C127.79,1699.3369 266.85,1753.2469 363.97,1700.9369 C425.83,1667.6269 428.03,1635.3469 450.97,1568.9369 C538.41,1315.8569 555.6539,423.6361 557.6839,296.8561" fill="none" id="Admin-to-UC_Admin" style="stroke:#181818;stroke-width:1;"/><polygon fill="#181818" points="557.78,290.8569,553.6364,299.7917,557.7,295.8562,561.6354,299.9198,557.78,290.8569" style="stroke:#181818;stroke-width:1;"/></g><!--link Admin to UC_InquiryReply--><g class="link" data-entity-1="ent0003" data-entity-2="ent0020" data-link-type="dependency" data-source-line="65" id="lnk51"><path d="M55.83,1627.3969 C56.07,1502.6569 63.31,1112.8069 143,1021.9369 C157.41,1005.5069 173.2271,998.1055 194.3071,993.6955" fill="none" id="Admin-to-UC_InquiryReply" style="stroke:#181818;stroke-width:1;"/><polygon fill="#181818" points="200.18,992.4669,190.5516,990.3946,195.2859,993.4907,192.1898,998.225,200.18,992.4669" style="stroke:#181818;stroke-width:1;"/></g><!--link Admin to UC_DiaryFeedback--><g class="link" data-entity-1="ent0003" data-entity-2="ent0021" data-link-type="dependency" data-source-line="66" id="lnk52"><path d="M76.37,1665.9369 C102.5,1665.9369 143.26,1665.9369 183.63,1665.9369" fill="none" id="Admin-to-UC_DiaryFeedback" style="stroke:#181818;stroke-width:1;"/><polygon fill="#181818" points="189.63,1665.9369,180.63,1661.9369,184.63,1665.9369,180.63,1669.9369,189.63,1665.9369" style="stroke:#181818;stroke-width:1;"/></g><!--link SuperAdmin to UC_Admin--><g class="link" data-entity-1="ent0004" data-entity-2="ent0019" data-link-type="dependency" data-source-line="68" id="lnk53"><path d="M104.32,74.7269 C114.52,74.4669 125.17,74.9869 135,76.9369 C285.46,106.9169 325.18,128.1069 450.97,215.9369 C465.93,226.3869 465.64,234.0669 480.97,243.9369 C493.51,252.0169 502.8377,256.6028 516.1877,261.7928" fill="none" id="SuperAdmin-to-UC_Admin" style="stroke:#181818;stroke-width:1;"/><polygon fill="#181818" points="521.78,263.9669,514.841,256.9776,517.1198,262.1551,511.9422,264.4339,521.78,263.9669" style="stroke:#181818;stroke-width:1;"/></g><!--link SuperAdmin to UC_AdminRoleAction--><g class="link" data-entity-1="ent0004" data-entity-2="ent0022" data-link-type="dependency" data-source-line="69" id="lnk54"><path d="M104.47,90.9069 C114.87,94.0069 125.56,97.9569 135,102.9369 C178.4,125.8469 216.1044,160.9483 239.9744,185.5783" fill="none" id="SuperAdmin-to-UC_AdminRoleAction" style="stroke:#181818;stroke-width:1;"/><polygon fill="#181818" points="244.15,189.8869,240.7589,180.6402,240.6703,186.2964,235.0141,186.2077,244.15,189.8869" style="stroke:#181818;stroke-width:1;"/></g><!--link SuperAdmin to UC_InquiryReply--><g class="link" data-entity-1="ent0004" data-entity-2="ent0020" data-link-type="dependency" data-source-line="70" id="lnk55"><path d="M59.23,119.4369 C73.31,286.3369 129.24,939.6769 143,955.9369 C157.12,972.6269 172.8656,980.0858 193.9856,984.4758" fill="none" id="SuperAdmin-to-UC_InquiryReply" style="stroke:#181818;stroke-width:1;"/><polygon fill="#181818" points="199.86,985.6969,191.8624,979.949,194.9646,984.6793,190.2343,987.7816,199.86,985.6969" style="stroke:#181818;stroke-width:1;"/></g><!--link UC_AdminRoleAction to UC_Admin--><g class="link" data-entity-1="ent0022" data-entity-2="ent0019" data-link-type="dependency" data-source-line="72" id="lnk56"><path d="M337.05,227.4369 C391.65,239.4169 459.7595,254.3705 506.7295,264.6805" fill="none" id="UC_AdminRoleAction-to-UC_Admin" style="stroke:#181818;stroke-width:1;stroke-dasharray:7,7;"/><polygon fill="#181818" points="512.59,265.9669,504.6569,260.1303,507.7063,264.8949,502.9417,267.9443,512.59,265.9669" style="stroke:#181818;stroke-width:1;"/><text fill="#000000" font-family="sans-serif" font-size="13" lengthAdjust="spacing" textLength="52.0508" x="396.47" y="237.0038">extends</text></g><!--link UC_DiaryFeedback to UC_DiarySubmit--><g class="link" data-entity-1="ent0021" data-entity-2="ent0012" data-link-type="dependency" data-source-line="73" id="lnk57"><path d="M327.92,1655.6169 C341.76,1650.4269 354.99,1642.6369 363.97,1630.9369 C552.43,1385.6669 304.06,497.6669 480.97,243.9369 C487.73,234.2569 492.4003,229.7638 503.0303,224.5138" fill="none" id="UC_DiaryFeedback-to-UC_DiarySubmit" style="stroke:#181818;stroke-width:1;stroke-dasharray:7,7;"/><polygon fill="#181818" points="508.41,221.8569,498.5692,222.2558,503.927,224.071,502.1118,229.4287,508.41,221.8569" style="stroke:#181818;stroke-width:1;"/><text fill="#000000" font-family="sans-serif" font-size="13" lengthAdjust="spacing" textLength="55.7642" x="394.97" y="313.0038">depends</text></g><?plantuml-src TLLTRn9157tVNp7XIH-KTnzCi8rAeaa3-cocCEAco-ww354q9eMrbHORiUaNKetL5cbhILiQhLh3ZndsWoV_WhEpxEuCgoy4pZtdthbpxncmZ1K4ihfcu6c8OKhN0J4xnBmWjH-aTk9_iThzFnTrkrDpEzK_5qkIWXvYW3LWo8L76EHb0-MmhAbIQKvMTMZ08j1XRWuMK1PNQ7Ol3DM2WYG9vh1cWCJmVDwjVmqAVQEV2G1Bu7u96G75wUqupKLtVe55KlcYh0OXxsXKPxwbdo8jMzQHuNEbi2f8yEqbm7C9W4l4F2ArOrBR9MR_CgizzU2ELg125emEvhH-ZLwV1fGCAlY4DZl1nz76gTlv4aHlQqNQ8uqxxPxTRP7QggzEskqpU-CueDtIeEAnPjAKuNQtkFmpQIzWR-vHc0RjvNMdEqWwtxkZzcBIMbeUjNO3whGCZSfKvlwqe0ZlWrJFxJTDwzLFWPyjpnPbBFazL8dvcPWcCUkZ-Ufmi1Cmfnv1d4LgFiPYpIRjxGFtuCWln4io2FeIUg_c8RkVJLu-_BrjrvlX9HXQMPyo4CGeBjgXKo5cCvol8BeBLRfQh8VXpxhLUnVTixLmOcylXOU22kq26XxJMdz3gY-jPftKw9Uss71QVLoMZOe_EbRGMVirUlz9dAw_L_5Sxc0jdYk3TAN29iE6C9vFjJU-mvitXB7SH2W_IoqJ7O1EqExkZrfDPwtl7ZQyNLWQk0ShIMlbR7ZU4CwKqHIKyXt8AXwVsVs-lrTKPotiMSljG91z8XVJgbx6_sBM5-qFpQJOjIT8gL2fF4EHnFb-vWnMsPmQnDoZSnA7wubc36fNEOV6oxReKMi_tFqEkxY9lR-7L5Kk2KoMiUEqTobvE7Xl7Ms9v2mswEuKAkFyJV_12lEFDXhMbqPIB7C3bkOGdeMA8eZ-NoeIXELUI9BtJe4hLwv7ZmQFU6y4_vkz2Zp0_Cy3rFNypyZPCNJiNnuFtJe9CZyATJdBnV2nguGaWNzuCF0AZqLBDOa6cpE9Xyl11yPB48V2k-T3t2p_3KSBmbmI47mR2v3WMI4YkbEA_b_4RF_1EMF66K9HAIu1Lwz6cS0rW9vYEesID7cgWCVj1sNdaUwn_m80?></g></svg>